<?xml version="1.0" encoding="utf-8"?>

<!DOCTYPE svg PUBLIC "-//W3C//DTD SVG 1.1//EN" "http://www.w3.org/Graphics/SVG/1.1/DTD/svg11.dtd">
<svg version="1.1" id="Layer_1" xmlns="http://www.w3.org/2000/svg" xmlns:xlink="http://www.w3.org/1999/xlink" x="0px" y="0px"
	 viewBox="0 0 1392.301 1685.61" enable-background="new 0 0 1392.301 1685.61" xml:space="preserve">
<g>
	<path stroke="#000000" d="M394.28,42.788c27.084,22.471,54.491,44.545,81.834,66.702
		c149.525,121.055,299.401,241.675,449.241,362.351c138.978,111.848,277.919,223.724,416.944,335.507
		c4.853,3.993,9.9,7.765,14.596,11.961c-71.814,15.788-140.864,42.419-206.771,74.726c-35.08,17.203-69.327,36.05-102.734,56.294
		c-30.763,18.709-60.906,38.472-89.876,59.862c-8.707,6.554-17.507,13.034-25.596,20.345c7.931,2.459,15.261,6.729,21.288,12.442
		c4.871,4.696,10.066,9.281,13.348,15.307c2.135,3.605,3.134,7.728,3.984,11.804c8.966,0.841,17.988,0.259,26.973-0.12
		c14.549-0.786,29.09-1.849,43.602-3.189c14.827-1.858,29.117-6.489,43.288-11.065c22.065-7.275,43.88-15.354,66.277-21.593
		c20.576-5.62,41.855-10.242,63.319-8.726c14.605,1.007,29.349,5.944,40.275,15.964c12.276,11.065,19.153,26.807,22.98,42.613
		c4.113,18.034,5.934,36.586,5.676,55.073c-0.434,29.58-8.153,59.409-24.486,84.274c-9.188,14.143-20.909,26.548-33.98,37.159
		c-8.929,7.256-18.534,13.616-28.091,19.994c-4.862,3.124-8.985,7.478-14.503,9.512c-10.066,3.91-21.048,4.409-31.724,4.64
		c-41.042-0.111-81.427-8.365-122.09-12.821c-70.695-7.931-141.557-14.291-212.419-20.475c-11.434-0.878-22.85-2.034-34.303-2.718
		c-6.129-0.471-11.739,2.727-16.407,6.36c-6.813,5.149-11.906,12.202-18.885,17.147c-7.839,5.685-16.897,10.26-26.659,11.148
		c-2.865,0.407-6.341-0.629-8.56,1.738c-6.766,6.433-10.547,15.215-14.291,23.608c-7.099,16.962-12.165,34.691-16.916,52.43
		c-10.871,41.883-18.968,84.422-26.187,127.063c-7.959,48.002-15.123,96.189-19.338,144.682
		c-28.359-14.106-53.401-33.943-76.972-54.907c-27.26-24.477-52.421-51.191-76.519-78.765
		c-44.277-50.96-84.921-104.971-123.477-160.359c-15.16-21.907-30.06-44-44.332-66.499c-0.776-1.396-2.006-2.671-3.734-2.154
		c-39.517,2.551-79.468-2.117-117.339-13.671c-33.712-10.288-65.953-25.956-93.989-47.401
		c-20.29-15.705-38.629-34.654-50.664-57.496c-7.802-14.817-12.562-31.576-11.573-48.418c0.666-12.479,2.431-25.355,8.698-36.383
		c5.195-9.382,14.503-16.01,24.782-18.746c15.335-4.215,31.484-2.995,47.115-1.414c31.364,3.688,62.247,10.492,93.361,15.76
		c-25.3-80.993-42.927-164.472-50.849-248.987c-8.19-87.232-6.276-175.555,7.663-262.113c6.637-41.319,16.047-82.222,28.803-122.09
		c5.528-17.323,11.887-34.377,19.116-51.053c-6.923,0.259-13.819,0.952-20.733,1.322c2.949-8.005,7.071-15.742,7.903-24.357
		c0.018-0.924,0.61-2.792-0.915-2.773c-8.818-1.118-17.655-2.145-26.428-3.55c-6.887-1.266-13.921-0.324-20.826-1.359
		c-10.954-1.331-21.242-5.934-30.365-12.007c-4.751-2.773-9.364-6.036-12.359-10.76c-3.06-4.539-7.829-9.16-7.155-15.049
		c2.108-5.897,8.892-7.857,14.226-9.789c12.433-4.446,25.549-6.286,38.269-9.623c-1.313-4.585-4.326-8.31-7.071-12.091
		c-3.568-4.696-4.03-10.898-7.478-15.668c-4.908-7.182-12.017-13.542-20.77-15.261c-7.469-1.423-13.357-6.729-18.524-11.97
		c-8.301-8.818-15.123-19.92-15.779-32.288c25.235-9.558,53.058-13.912,79.773-8.615c32.759,6.313,61.747,27.204,80.272,54.667
		c1.091,1.276,1.849,3.346,3.771,3.476c5.713,0.619,11.462,0.813,17.202,1.248c15.733-30.855,32.334-61.258,49.111-91.549
		C340.935,128.199,366.309,84.662,394.28,42.788 M339.946,178.208c-17.914,31.669-34.969,63.855-50.35,96.827
		c5.232,0.499,10.723,0.185,15.566,2.625c9.955,4.631,18.413,13.634,20.798,24.542c8.375-0.961,16.639,1.359,24.551,3.827
		c16.953,5.666,33.138,13.357,49.084,21.371c7.866,4.15,15.927,7.977,23.553,12.553c9.826,7.903,15.511,19.597,21.103,30.624
		c1.95,3.42,2.792,7.589,5.25,10.639c11.86-2.505,23.858-5.103,36.059-4.899c3.762,0.148,7.949,0.379,10.889,3.05
		c3.651,3.208,6.424,7.256,9.151,11.25c11.86,18.284,21.233,38.028,30.522,57.708c2.237-1.756,4.465-3.531,6.692-5.297
		c5.306,4.936,10.686,9.789,16.01,14.707c4.529-6.637,8.883-13.394,13.431-20.013c1.803,1.313,3.596,2.653,5.426,3.947
		c4.724-4.197,9.992-7.783,14.513-12.192c1.803-3.929,2.727-8.199,4.455-12.155c1.017-2.838,2.93-5.426,3.06-8.513
		c0.342-7.691-0.434-15.381-0.028-23.063c0.148-1.682,0.259-3.429,1.026-4.964c1.969-2.061,5.13-1.96,7.774-2.126
		c9.318,0.028,18.543,1.913,27.463,4.511c16.315,5.158,30.837,14.54,46.043,22.166c5.75,1.368,11.702,1.812,17.517,2.921
		c1.997,3.966,4.446,7.7,6.341,11.721c-2.043,9.438-4.89,18.783-6.387,28.378c9.087,3.836,15.668,11.832,19.828,20.558
		c5.62,11.841,8.319,24.884,9.391,37.89c0.647,3.67-2.45,6.979-1.322,10.639c1.83,6.11,10.371,6.471,11.971,12.793
		c1.839,7.293-0.712,14.744-2.376,21.833c-2.708,9.123-4.982,18.45-8.855,27.176c-2.829,5.981-7.256,12.562-14.392,13.431
		c-4.945,0.721-9.124-2.376-13.625-3.707c-4.446,4.169-5.75,10.492-8.449,15.77c-0.915,1.525-1.451,4.15-3.716,3.91
		c-6.147-0.74-11.379-4.465-16.592-7.515c-3.337,6.156-7.792,11.601-11.693,17.359c4.344,9.318,3.023,19.92,2.616,29.875
		c-1.008,13.311-2.819,26.575-5.62,39.637c7.321,3.041,12.202,9.697,15.733,16.528c7.145,13.976,10.621,29.441,13.588,44.758
		c0.629,3.845,1.266,7.7,1.849,11.564c0.915,6.535,1.645,13.098,2.265,19.67c5.546-1.673,11.111-3.318,16.602-5.167
		c1.248,1.359,0.712,3.476,1.091,5.186c0.416,17.526,1.387,35.043,2.366,52.55c0.74,8.735,0.758,17.609,2.625,26.206
		c2.413,3.614,6.35,5.897,9.623,8.698c15.261,11.471,30.781,22.638,46.69,33.175c11.24,8.412,23.312,16.038,34.867,24.144
		c-1.081,5.13-3.041,10.002-5.389,14.67c6.452,2.043,12.599,4.955,19.06,6.988l0.25,0.527c2.144,0.786,4.243,1.71,6.341,2.662
		c14.06,6.507,27.685,14.189,39.637,24.098c10.288,8.495,19.292,18.802,24.976,30.948c3.06,7.127,5.213,14.799,4.918,22.628
		c3.531-3.346,7.386-6.313,11.379-9.077c1.276-0.869,2.422-1.941,3.3-3.208c18.792-15.622,38.592-29.996,58.725-43.833
		c60.047-40.783,124.161-75.382,190.142-105.525c3.956,0.527,7.423-1.701,10.981-3.032c45.636-18.543,91.558-36.42,137.943-53.021
		c-34.941-26.197-68.8-53.789-103.03-80.891c-110.739-88.536-220.988-177.7-331.246-266.845
		C714.84,335.359,557.985,208.037,401.176,80.659C379.019,112.042,359.015,144.884,339.946,178.208 M116.37,219.961
		c-4.178,0.656-8.837,0.786-12.192,3.688c1.488,0.74,2.921,1.627,4.52,2.154c-0.545,0.102-1.627,0.287-2.172,0.388
		c2.071,8.088,5.759,17.165,13.828,20.872c12.747,3.901,26.973,4.113,38.463,11.481c8.828,6.387,19.181,11.527,25.17,21.011
		c3.365,5.121,3.208,11.444,3.66,17.313c0.102,4.335,0.37,8.985-1.645,12.969c-1.525,3.06-4.908,4.705-8.227,4.788
		c-18.478,0.712-36.827,3.143-55.148,5.481c0.749,3.938,1.045,7.922,1.461,11.897c0,2.283,2.265,3.439,4.012,4.363
		c5.805,2.69,12.118,3.984,18.191,5.916c17.378,6.156,35.865,8.014,53.974,10.889c3.318,1.026,5.306-2.172,7.469-4.039
		c14.032-13.237,28.045-26.492,42.142-39.646c-1.534-6.461-3.966-12.701-5.102-19.255c1.756,1.202,3.614,2.265,5.518,3.217
		c-13.089-18.57-27.075-36.549-39.175-55.813c-2.542-4.086-4.345-9.142-9.022-11.286c-9.697-5.038-20.992-0.647-31.068-3.855
		c-6.692-1.553-13.57-1.987-20.401-2.523C139.229,219.277,127.749,218.843,116.37,219.961 M252.593,286.756
		c2.838,2.681,4.52,7.386,8.56,8.273c-1.59,6.045-3.078,12.128-4.918,18.108l-0.647-0.148
		c-6.156,12.257-12.534,24.403-18.737,36.633c-2.376,4.548-4.862,9.059-6.702,13.865c10.695-2.366,20.983-6.239,31.641-8.735
		c6.563,7.441,13.579,14.466,20.29,21.769c5.029,5.176,9.955,10.473,15.391,15.234c3.429,3.374,6.997,6.609,10.852,9.493
		c1.729-4.631,4.825-8.523,7.182-12.83c3.679-2.376,5.971-6.286,9.022-9.345c8.365-8.689,16.962-17.193,26.224-24.921
		c-3.864,16.814-9.613,33.148-13.93,49.851c9.059-1.858,18.025-4.095,27.093-5.916c6.979-1.34,13.93-3.272,21.103-3.05
		c-1.017,2.579-2.126,5.167-3.919,7.312c-6.018,7.182-13.061,13.403-19.56,20.133c-5.093,4.465-10.15,8.976-15.141,13.56
		c-4.557,3.966-3.161,10.658-1.904,15.807c3.993,13.939,11.693,26.483,19.939,38.287c3.697,5.472,8.375,10.15,12.59,15.197
		c3.55,4.28,4.64,9.881,5.001,15.28c-0.952,5.038-3.494,9.475-5.796,13.967c1.183,3.531,5.74,4.428,8.55,6.508
		c-0.018,0.61-0.065,1.83-0.083,2.44c-2.052,1.266-4.086,2.533-6.11,3.845c3.882,3.309,8.227,6.073,12.969,8.005
		c-7.284,3.91-14.725,7.534-22.333,10.778c-4.335,1.821-7.349,5.592-10.057,9.271c-5.075,6.877-9.401,14.291-13.135,21.972
		c-2.671,5.26-3.023,11.305-5.565,16.62c-4.16,8.874-8.208,17.905-13.727,26.049c-6.581,8.236-13.218,16.454-19.236,25.124
		c9.345,2.644,19.014,3.864,28.47,6.018c7.626,1.867,14.762,5.25,21.704,8.846l-0.416,0.508c-6.23-0.259-12.46,0.287-18.672,0.712
		c-2.32,0.111-4.548,0.841-6.489,2.08c-12.784,7.903-25.697,15.603-38.546,23.405c-2.81,1.22-2.801,4.455-3.078,7.053
		c-1.359,15.465-3.272,30.874-4.576,46.338c9.826-7.071,19.19-14.762,28.831-22.083c8.504-6.757,17.295-13.163,25.614-20.142
		c6.776-4.723,12.729-10.565,19.837-14.827c15.77-9.881,32.454-18.358,49.832-25.041c9.817-3.577,20.955-7.118,31.207-3.134
		c9.096,3.559,14.133,12.386,20.012,19.606c3.263-5.666,6.6-11.342,10.852-16.333c15.502-18.404,35.939-32.029,57.505-42.345
		c3.337-1.424,4.89-4.862,6.591-7.811c-2.967,0.351-5.934,0.952-8.92,0.758c-1.756-0.638-2.838-2.357-4.178-3.568
		c1.202-2.228,2.385-4.465,3.559-6.702c-4.049-2.727-8.439-4.834-12.719-7.118c-4.955-2.588-8.199-7.339-10.981-12.017
		c-3.947-6.766-7.386-13.828-10.344-21.085c-1.516-3.79-3.605-7.312-6.055-10.547c-2.893-3.818-5.611-8.06-9.946-10.381
		c-6.156-3.374-12.627-6.147-19.162-8.661c-3.818-1.516-8.153-2.459-10.981-5.648c-4.77-5.324-8.116-11.702-11.665-17.849
		c-1.655-2.773-2.893-5.75-4.002-8.763c17.914-8.356,35.634-17.23,52.328-27.851c5.001-3.087,9.373-7.099,14.513-9.983l0.508,0.647
		c7.977-7.293,15.742-14.864,22.813-23.054c2.505-3.207,5.565-6.369,6.461-10.455c-0.416-4.391-2.847-8.236-4.797-12.081
		c-9.013-16.139-19.532-31.382-30.088-46.532c-15.002,0.139-30.005-0.25-44.998,0.111c0.712,0.176,1.433,0.333,2.163,0.49
		c-1.155,0.111-2.302,0.194-3.448,0.222c-1.497-1.285-2.607-2.921-3.993-4.308c-3.633-9.872-8.171-19.43-10.935-29.626
		c-0.12-1.627-1.682-2.181-2.949-2.755c-36.383-15.344-72.738-30.763-109.121-46.117c-1.47-0.582-2.773-1.479-3.799-2.662
		c-7.376-7.996-16.851-14.115-27.306-17.193C276.534,281.773,263.926,282.688,252.593,286.756 M243.47,385.94
		c-1.34-0.148-1.544,1.516-2.024,2.385c-14.318,38.805-26.899,78.266-37.049,118.365c-21.833,85.929-33.064,175.139-26.788,263.795
		c0.536,5.241,0.324,10.621,1.812,15.723c1.396,21.353,1.849,42.807,4.659,64.04c1.692,21.094,4.446,42.123,7.598,63.051
		c6.471,40.931,15.344,81.705,30.042,120.546c5.454,13.875,11.185,27.805,18.931,40.57c52.079,1.876,104.139,4.566,156.19,7.053
		c0.98-7.903,0.314-15.853-0.074-23.765c-0.425-8.994,1.747-18.192,6.868-25.67c4.261-5.666,10.279-10.085,17.23-11.758
		c-0.166-19.56-7.58-38.407-17.849-54.806c-2.875-4.123-5.398-8.735-9.142-12.091c-5.99-0.425-12.008-0.398-18.007-0.111
		c0.259-6.073,2.921-11.647,4.871-17.295c-7.561,1.738-15.113,3.513-22.656,5.324c-26.021-20.281-52.042-40.561-78.035-60.879
		c-1.387-0.823-0.841-2.57-0.915-3.845c0.444-14.522,0.786-29.044,1.22-43.556c-0.055-1.35,0.203-2.847-0.684-3.975
		c-5.805-8.689-11.878-17.193-17.979-25.679c7.959-16.093,10.279-34.229,11.462-51.94c0.092-2.108,0.166-4.224,0.24-6.323
		c0.333-7.968-0.203-15.936-0.786-23.858c3.697-7.7,10.815-12.978,17.36-18.127c13.071-9.844,27.546-17.535,41.772-25.512
		c-16.888-0.305-33.776,0.462-50.646,1.128c3.892-2.191,7.617-4.705,10.852-7.802c10.103-9.521,18.256-20.881,25.762-32.501
		c2.339-3.919,5.25-7.644,6.341-12.146c7.589-28.831,26.012-54.944,51.367-70.797c-4.28-6.166-8.855-12.128-12.997-18.376
		c1.137-7.774,4.548-15.215,6.175-22.961c-3.559-7.182-8.014-13.902-11.906-20.909c-10.233-17.646-20.549-35.237-30.735-52.911
		c10.649-8.929,21.381-17.757,31.992-26.723c-12.433,2.57-24.81,5.398-37.261,7.903c2.015-7.996,4.391-15.881,6.517-23.849
		c-6.286,8.347-12.423,16.805-18.617,25.217c-12.423-12.174-24.644-24.551-36.919-36.873c-0.934-0.869-1.867-2.117-3.318-1.784
		C260.053,384.729,251.761,385.358,243.47,385.94 M604.933,388.334c0.989,2.126,2.708,3.993,2.57,6.498
		c0.416,8.264,1.34,16.685-0.24,24.875c-3.281,9.697-10.686,17.267-15.797,25.901c13.274,12.017,26.594,23.996,39.933,35.939
		c4.825-1.932,9.66-3.873,14.374-6.082c-2.653,4.178-8.107,4.335-12.109,6.526c5.093,2.311,10.408,4.113,15.622,6.138
		c4.751,1.682,9.327,3.947,14.281,4.973c20.447,3.845,40.561,11.61,56.747,24.93c0.194-14.097-0.157-28.6-5.334-41.911
		c-4.104-11.139-11.776-20.761-21.436-27.602c0.213-11.277-1.775-22.536-5.537-33.148c0.693-0.12,2.089-0.37,2.782-0.49
		c-1.516-0.684-3.004-1.396-4.474-2.117c-0.379,0.194-1.128,0.582-1.497,0.776c-9.854-2.117-19.837-3.66-29.626-6.092
		c-7.45-2.034-14.217-6.397-19.338-12.155c-2.81-3.568-7.45-4.613-11.434-6.276C618.272,386.91,610.914,384.526,604.933,388.334
		 M565.74,458.78c2.228,2.2,4.474,4.391,6.544,6.757c5.029,1.405,9.077,4.797,13.237,7.811c5.842,4.344,11.527,8.929,16.777,13.986
		c5.38-2.579,10.741-5.204,15.991-8.033c-9.826-8.125-19.615-16.306-29.672-24.144c-5.981-3.476-11.647-7.45-17.526-11.083
		C569.29,448.963,567.469,453.853,565.74,458.78 M491.837,496.457c-11.444,7.376-23.839,13.07-36.106,18.912
		c8.236-0.342,16.324,1.729,23.996,4.594c12.488,4.668,24.403,10.704,36.697,15.844c4.428,2.302,10.242,5.001,10.732,10.649
		c-1.146,22.36,0.333,44.776,1.303,67.127c2.145-0.786,4.234-1.969,5.204-4.16c5.86-11.139,11.555-22.37,17.47-33.471
		c-2.394-4.631-5.722-8.772-7.755-13.579c4.372-9.78,9.65-19.282,12.451-29.709c0.934-3.623,0.897-7.395,0.897-11.102
		c-0.009-19.347-0.971-38.666-1.433-57.995c-2.144-1.368-4.317-2.699-6.452-4.076c-3.55-2.708-7.118-5.38-10.713-8.023
		C526.806,470.085,510.14,484.893,491.837,496.457 M561.812,464.307c1.211,9.503,2.616,18.977,4.012,28.452
		c0.139,2.172,2.745,2.034,4.308,2.514c13.265,2.274,26.511,4.705,39.886,6.221c-4.271-5.87-10.371-9.983-15.964-14.466
		C583.525,479.153,572.793,471.545,561.812,464.307 M634.161,497.261c-0.693,0.897-1.285,1.867-1.839,2.856
		c-0.268,0.388-0.813,1.165-1.081,1.553c-1.266,0.12-0.952,2.348-1.544,3.3l-0.767-0.009c-1.886,3.374-3.873,6.683-5.861,9.992
		l-1.1-0.046c-0.481,2.681-0.416,5.408,0.564,7.977c0.85,1.876,1.682,3.771,2.431,5.703l0.555-0.074
		c0.342,0.638,1.026,1.895,1.368,2.523c1.211,2.413,2.597,4.742,3.818,7.164l0.712-0.028c0.989,2.015,2.015,4.095,3.623,5.722
		c1.331,2.117,2.477,4.455,4.345,6.184c0.749,1.257,1.534,2.514,2.283,3.799l0.481-0.055c3.004,4.271,5.833,8.948,9.752,12.396
		c13.209-1.174,26.437-3.143,39.729-2.681c2.847-0.092,4.659,2.32,6.249,4.326c0.675,1.627,1.414,3.244,2.108,4.89
		c0.629,1.701,1.257,3.402,1.895,5.121c0.518,1.581,1.045,3.171,1.562,4.76c0.897,2.145,1.682,4.465,3.374,6.147
		c3.614,0.435,5.398-3.642,7.164-6.119c1.063-1.424,1.932-2.976,2.829-4.511c0.823-1.673,1.627-3.355,2.487-5.01
		c0.786-1.729,1.571-3.466,2.366-5.186c1.913-4.862,4.289-9.623,5.417-14.716l0.786,0.018c0.065-0.841,0.213-2.523,0.287-3.365
		l0.592,0.083c0.434-1.904,1.017-3.771,1.414-5.676l0.536,0.065c0.305-1.433,0.666-2.847,0.924-4.28
		c1.109-2.995,1.886-6.091,2.671-9.17l-0.85,0.018c-0.915-1.109-1.839-2.181-2.865-3.152c-2.56-2.348-5.186-4.788-8.421-6.156
		c-3.402-2.348-6.96-4.631-10.926-5.86c-6.997-3.956-14.707-6.341-22.157-9.253c-2.625-0.887-5.232-2.191-8.042-2.181
		c-2.662-1.257-5.407-2.727-8.412-2.755c-2.893-1.072-5.814-2.662-8.976-2.523c-2.2-0.897-4.409-1.978-6.813-2.089
		c-5.001-1.525-10.085-2.81-15.187-3.947C638.34,492.038,636.019,495.061,634.161,497.261 M564.89,495.44
		c-0.518,5.694-0.98,11.397-1.266,17.11c12.682-6.776,27.019-10.529,41.439-9.854C591.816,499.6,578.284,497.797,564.89,495.44
		 M561.885,521.96c-0.342,14.91-5.047,29.33-10.75,42.974c1.858,2.357,3.697,4.724,5.555,7.099c1.276,1.645,2.542,3.3,3.818,4.955
		c-8.014,15.132-16.093,30.236-24.043,45.405c13.163-3.864,26.575-6.748,40.043-9.281c-3.18-9.807-5.241-20.142-4.391-30.495
		c0.333-7.718,2.875-15.039,5.029-22.37c0.823-0.693,1.118-1.793,1.636-2.69c4.437-9.641,10.408-18.515,16.777-26.964
		c-1.941,5.102-4.65,9.974-5.787,15.354c-4.446,13.126-4.372,27.86,0.638,40.829c3.882,10.852,11.388,19.754,18.524,28.591
		c2.588,4.797,7.284,7.968,12.433,9.484c1.47,0.675,3.032,1.109,4.631,1.424c2.681,0.712,5.389,1.46,8.181,1.608
		c1.424-0.721,2.653-1.775,3.873-2.81c5.269-3.263,10.149-7.127,15.307-10.584c1.682-1.276,3.716-2.265,4.862-4.113
		c5.195-5.315,7.792-12.599,7.959-19.948c6.498,5.74,14.993,8.365,23.183,10.649c1.294-5.953,2.875-11.841,4.049-17.822
		c0.804-5.435-4.696-10.482-10.039-9.558c-9.003,1.035-17.156,5.287-25.66,8.107c-2.56,1.017-5.445,0.471-7.709-0.98
		c-4.465-2.801-8.245-6.646-11.453-10.787c-4.89-7.82-8.31-16.444-12.044-24.847c-5.204-12.118-10.039-24.394-15.021-36.605
		C594.331,509.897,577.147,513.826,561.885,521.96 M445.619,517.837c17.452,10.519,34.95,20.992,52.957,30.541
		c0.009,0.351,0.037,1.063,0.046,1.414c2.311,1.063,4.964,1.701,6.702,3.716c3.577,3.929,5.583,8.966,7.46,13.856
		c4.982,13.958,7.737,28.572,10.279,43.131c0.776-12.978,0.129-26.002-0.666-38.962c-0.878-9.262-1.461-18.755-4.705-27.546
		c-0.767-1.932-2.413-4.918-4.797-4.271c-8.809-4.187-17.96-7.617-27.093-11.018C472.721,524.086,459.41,519.742,445.619,517.837
		 M561.849,625.498c8.181,2.69,16.583,4.668,24.93,6.757c1.692,0.444,3.374,1.192,4.557,2.542c0.721,4.234,0.702,8.597,1.756,12.802
		c2.015,3.208,1.738,7.155,2.514,10.741c2.329,12.802,5.731,25.448,10.399,37.603c2.191,5.528,4.465,11.296,8.911,15.446
		c1.655-3.263,3.439-6.498,5.907-9.216c9.105-10.168,20.484-17.849,31.105-26.271c2.56-1.904,2.533-5.361,2.755-8.227
		c0.379-11.795-0.776-23.571-1.904-35.292c-7.404,3.679-12.257,11-19.55,14.697c-6.591-0.24-12.904-3.171-18.524-6.452l1.017-0.351
		c-3.374-4.659-7.293-8.874-10.871-13.366c-1.109-1.128-1.941-3.05-3.827-2.718C587.962,624.527,574.891,624.916,561.849,625.498
		 M540.801,631.432c8.079,1.867,16.398,2.94,24.209,5.851c1.331,0.629,3.161,1.128,3.476,2.819
		c1.109,3.771,1.719,7.672,2.635,11.499c0.767-0.222,2.302-0.656,3.069-0.878c0.148,0.176,0.444,0.518,0.592,0.693
		c-1.091,0.111-2.163,0.231-3.235,0.379c1.081,13.644,3.892,27.407,10.381,39.572c6.739,13.246,18.034,23.442,30.014,31.918
		c-9.512-14.882-13.607-32.371-18.265-49.204c-1.987-8.902-4.908-17.702-5.648-26.816c0.018-5.407-1.544-13.006-7.866-14.133
		C567.33,630.194,553.825,629.131,540.801,631.432 M522.156,653.349c-6.692,3.272-13.838,7.229-17.147,14.272
		c-6.628,13.634-9.114,28.775-11.98,43.538c-0.287,2.727-1.682,6.119,0.684,8.328c7.848,8.504,15.603,17.119,23.007,26.021
		c5.13,6.165,10.316,12.497,13.292,20.04c2.339,5.851,5.001,12.396,2.838,18.709c-3.318,10.02-7.903,19.818-8.772,30.476
		c6.064,1.95,12.47,1.83,18.765,1.83c34.58-0.129,69.031-3.466,103.557-5.075c4.344-0.157,9.086-0.268,12.849,2.292
		c8.523,5.463,10.639,16.897,19.467,22.046c6.424,9.336,15.825,17.387,27.158,19.781c-2.477-5.204-4.631-10.602-5.666-16.287
		c-3.448-17.507-4.141-35.431-4.271-53.234c-5.398,0.444-10.787,0.943-16.186,1.202c-3.004-19.43-6.517-38.777-9.04-58.281
		c-1.377-12.821-7.885-25.577-18.755-32.843c-2.736-1.534-6.951-4.234-9.521-1.045c-3.161,4.021-4.862,8.966-7.885,13.098
		c4.474,3.263,7.783,7.792,10.307,12.673c5.019,9.512,8.865,19.615,12.026,29.885c-4.326-5.602-6.951-12.239-10.76-18.164
		c-4.28-6.766-8.569-13.551-13.366-19.957c-5.084,10.76-8.55,22.323-14.3,32.741c-3.503,0.675-6.544-1.803-9.336-3.531
		c-5.676-4.178-11.934-7.645-16.907-12.692c-3.568-3.531-6.813-7.367-10.455-10.815c-3.448-3.337-7.718-6.119-9.678-10.676
		c-4.326-9.465-4.16-20.133-6.979-30.023c-1.655-5.759-3.568-11.462-6.147-16.87c-1.729-3.568-4.039-7.173-7.792-8.828
		c-4.335-2.006-9.022-3.67-13.828-3.651C532.001,648.94,527.028,651.223,522.156,653.349 M472.074,688.346
		c-1.923,3.226-3.919,6.683-4.113,10.538c-0.157,1.294,1.248,1.987,1.913,2.94c3.115,3.115,5.953,6.489,8.818,9.844
		c3.827-15.751,7.044-31.789,13.403-46.773C484.775,672.114,477.611,679.629,472.074,688.346 M408.561,684.195
		c-9.022,3.448-16.777,9.475-24.69,14.891c-21.029,15.104-41.162,31.419-60.99,48.067c-15.261,13.024-30.596,26.039-44.628,40.413
		c-5.25,5.176-9.216,12.59-7.469,20.151c2.228,9.549,9.872,16.676,17.692,22.009c0.287,9.502,0.795,18.996,1.414,28.489
		c0.434,0.111,1.313,0.323,1.747,0.434c-0.952,0.176-1.886,0.398-2.819,0.647c0.934,4.049,1.423,8.255,2.939,12.146
		c3.439,3.411,7.497,6.128,11.176,9.29c17.175,13.949,34.368,27.879,51.542,41.828c1.155,1.331,2.893,0.499,4.298,0.148
		c6.794-2.191,13.616-4.289,20.419-6.461c2.866-0.629,3.781-3.734,5.186-5.916c8.153-15.27,14.651-32.491,12.765-50.082
		c-1.137-11.176-7.7-21.316-16.971-27.518c-1.904,1.008-3.818,1.969-5.75,2.912c1.257-1.534,2.496-3.078,3.79-4.576
		c-4.955-10.344-8.347-21.538-8.948-33.037c-0.934-16.759,3.929-33.989,14.281-47.29c-1.83,13.653-4.437,27.195-6.748,40.774
		c-1.913,13.2,5.278,25.512,13.015,35.597c10.75,13.791,24.348,24.93,37.797,35.958c2.413-9.05,10.797-15.77,20.17-16.093
		c-6.572,7.654-13.514,15.002-19.587,23.063c-10.27,13.413-19.791,28.138-23.183,44.943c-2.329,11.12-0.656,22.481-0.037,33.675
		c-0.065,1.276,0.638,2.366,1.424,3.337c13.865,17.193,23.063,38.869,22.786,61.193c12.202-0.989,24.375,2.625,34.932,8.578
		c13.496,7.635,25.161,18.395,34.229,30.948c3.439-3.966,8.929-5.213,13.976-4.871c7.608,0.416,14.864,5.149,18.099,12.091
		c3.938,8.375,4.086,17.923,3.245,26.973c8.458,0.342,16.916,0.869,25.383,1.285c1.59-12.146,2.496-24.56,6.535-36.198
		c-9.225-5.01-17.591-11.397-26.344-17.156c3.845-2.829,6.591-6.831,8.421-11.185c4.788-11.157,6.988-23.174,9.151-35.052
		c0.739-3.892,1.766-8.014,0.25-11.85c-2.801-7.829-8.356-14.207-13.32-20.734c-10.584-12.978-19.421-28.665-19.837-45.793
		c-1.137,0.416-2.366,0.601-3.429,1.211c-6.859,5.13-11.157,13.2-18.644,17.544c-2.884,1.655-4.65-2.006-5.287-4.243
		c-1.793-6.905,0.61-13.986,3.06-20.401c5.777-13.912,14.208-26.612,23.802-38.148c0.767-4.964-0.536-9.965-1.35-14.845
		c-2.542-12.738-6.036-25.263-9.502-37.76c-0.508-1.266,0.287-2.422,0.841-3.476c4.964-8.781,9.336-17.951,12.257-27.629
		c0.878-3.069,1.978-6.434,0.555-9.521c-3.355-8.033-9.234-14.651-14.753-21.26c-20.576-23.433-43.833-44.305-66.6-65.556
		c-4.391-4.187-10.861-4.529-16.583-4.104C421.696,682.725,415.069,683.104,408.561,684.195 M526.039,825.946
		c2.819,11.85,5.897,23.627,8.818,35.449c0.823,2.764-0.749,5.481-1.987,7.866c-1.793,1.645-4.539,2.163-5.694,4.492
		c-4.197,6.757-8.855,13.209-14.281,19.033c-4.788,7.506-5.703,16.713-6.97,25.346c8.153-9.059,16.102-18.413,25.494-26.233
		c1.645-1.239,4.779-3.633,6.008-0.684c3.087,8.301,0.462,17.36,0.786,25.965c0.379,2.385,1.544,4.557,2.542,6.748
		c5.084,10.454,10.612,20.687,16.195,30.883c2.976,5.056,5.297,10.538,8.791,15.271c8.883,8.513,21.214,11.564,32.02,16.796
		c1.396,2.098,3.901,3.161,6.008,4.446c10.02,5.611,22.102,6.406,33.175,3.984c13.56-3.032,26.086-9.715,37.067-18.117
		c5.223-3.919,11.37-6.341,17.443-8.615c10.076-3.439,20.613-5.981,31.308-6.11c-11.055,4.871-22.333,9.475-32.436,16.213
		C679.095,986,668.437,995.687,664,1008.712c-1.581,5.093-3.161,11.028-0.342,15.992c3.18,5.537,9.114,8.661,14.79,11.074
		c10.584,4.224,21.889,6.203,33.129,7.783c19.763,2.579,39.729,3.217,59.649,3.097c3.596-0.074,6.415,2.542,8.855,4.871
		c8.624,8.643,14.744,19.328,21.27,29.543c4.566,1.608,9.946,0.518,14.817,0.444c1.34-9.78,2.884-19.55,5.287-29.127
		c1.978-7.321,4.15-15.15,9.733-20.604c5.13-4.326,11.786-6.683,18.45-7.136c12.035-0.971,24.117-0.176,36.152,0.545
		c-3.771-9.946-7.663-19.976-13.57-28.868c-3.531-5.481-9.521-8.458-14.818-11.915c-22.129-13.2-45.053-25.022-67.959-36.799
		c0.582-4.28,1.174-8.578,1.211-12.895c0.139-1.997-1.405-3.476-2.542-4.881c-4.603-4.992-10.002-9.133-15.243-13.394
		c-23.026-17.923-47.226-34.275-71.315-50.729c-5.999-4.16-12.22-8.014-17.886-12.627c-8.818-6.683-17.933-12.969-27.185-19.014
		c-5.066-3.004-9.9-6.831-15.668-8.292c-9.234-0.277-18.487-0.018-27.731-0.194c-13.523-0.009-27.038-0.222-40.552,0.129
		C557.042,826.205,541.531,825.771,526.039,825.946 M569.511,984.327c-3.365,11.684-6.489,23.442-10.371,34.969
		c-2.071,5.555-3.744,11.564-7.876,16.029c10.297,3.771,20.724,7.404,31.604,9.133c-1.59,2.403-3.161,4.816-4.668,7.266
		c-3.79,6.757-7.376,13.773-9.059,21.39c-1.22,5.121-1.211,10.593,0.85,15.511c5.121,0.194,10.242,0.398,15.372,0.471
		c11.444-0.286,22.952-1.303,34.368,0.092c-4.289-10.658-9.327-21.575-9.253-33.277c1.553-2.939,5.176-2.921,7.996-3.771
		c3.337-0.924,7.561-1.433,9.392-4.807c1.368-3.365-0.074-7.007-0.73-10.362c-3.041-11.536-6.822-22.859-10.76-34.109
		c-7.247-2.237-14.411-4.779-21.575-7.275C586.178,992.323,577.369,989.244,569.511,984.327 M412.305,1032.348
		c8.088,0.666,16.047,2.958,23.007,7.173c15.03,8.735,27.139,21.556,38.13,34.839c4.871-3.993,9.835-7.866,14.513-12.091
		c-7.792-9.854-16.602-18.968-26.548-26.668c-6.073-4.539-12.747-8.892-20.419-9.928
		C430.996,1024.269,420.902,1027.347,412.305,1032.348 M849.659,1031.728c-8.467,1.608-16.694,6.628-20.447,14.614
		c-4.816,9.835-4.039,21.26-2.311,31.761c6.313-9.928,13.782-19.717,24.366-25.355c8.218-4.557,18.441-5.102,27.158-1.627
		c6.434,2.607,12.202,6.702,17.11,11.592c1.451,1.266,2.792,3.004,4.853,3.263c1.229-2.302,1.165-5.019,0.194-7.386
		c-2.736-7.136-7.718-13.07-12.414-18.977c-2.265-2.699-4.557-5.934-8.301-6.507C870.013,1030.859,859.66,1029.833,849.659,1031.728
		 M636.103,1033.568c-0.656,3.392-0.897,6.859-0.878,10.325c0.416,5.759-4.973,9.521-9.17,12.433
		c1.229,11.545,5.075,22.619,8.19,33.758c14.781-0.36,29.561-0.961,44.342-1.35c11.129,0.388,22.259,0.887,33.388,1.294
		c-5.435-8.292-11.268-16.333-17.6-23.959c-4.243-5.019-8.735-9.965-14.355-13.45c0.407-1.599-1.47-2.237-2.45-3.032
		c-5.722-3.235-11.564-6.267-17.369-9.336C652.704,1036.553,644.736,1032.458,636.103,1033.568 M896.718,1034.566
		c3.55,2.607,6.914,5.491,9.752,8.883c9.096,10.621,15.742,23.072,21.723,35.653c0.499,1.525,2.523,0.73,3.734,0.934
		c9.299-0.425,18.607-0.841,27.916-1.239c2.598-9.253-3.013-18.127-7.386-25.882c-4.298-6.729-11.739-10.556-19.06-13.117
		C921.611,1035.832,909.086,1034.686,896.718,1034.566 M408.423,1044.438c-5.324,0.823-7.663,6.544-7.866,11.351
		c-0.305,7.589,0.934,15.307,3.577,22.444c0.518,3.67,1.553,7.247,2.265,10.889c8.791,0.934,17.628,1.192,26.437,1.83
		c7.608,0.111,15.557,2.2,22.841-0.98c2.135-0.083,4.862,0.397,5.703-2.135c2.006-1.571,3.633-3.55,5.38-5.38
		c-2.949-4.992-5.759-10.196-9.734-14.448c-1.997-4.132-4.668-7.885-7.099-11.749c-2.523-4.16-7.275-5.99-11.527-7.802
		C428.934,1044.854,418.526,1042.71,408.423,1044.438 M902.403,1061.419c1.285,2.311,3.439,3.947,5.25,5.842
		c3.91,3.661,6.184,8.606,9.105,13.015c-2.292,1.008-4.724,1.858-7.136,2.505c0.582-1.257,1.165-2.505,1.729-3.771
		c-14.485-10.316-31.364-17.6-49.075-19.8c-6.119-0.703-12.895-0.656-18.108,3.06c-5.897,4.169-7.746,12.229-6.267,19.014
		c-0.49,0.776-0.961,1.571-1.414,2.394c19.818,0.527,39.646-0.018,59.464,0.277c2.468,0.12,4.936-0.194,7.118-1.331
		c1.618,1.553,3.346,2.976,5.093,4.409c-15.446,0.85-30.892,1.71-46.338,2.57c-20.096,1.072-40.136,2.903-60.195,4.557
		c-24.385,2.015-48.769,4.039-73.154,5.971c-10.418,0.684-20.817,1.932-31.262,1.71c-34.534-0.361-69.05-1.636-103.557-2.736
		c-23.377-1.109-46.791-0.656-70.178-1.276c-27.25-0.619-54.51-1.645-81.677-3.873c-21.436-1.655-42.946-1.987-64.419-2.986
		c-50.221-2.006-100.432-4.086-150.634-6.239c-21.954-0.721-43.787-3.245-65.648-5.232c-23.701-2.182-47.392-4.751-71.176-5.814
		c-8.097-0.453-16.962,0.518-23.396,5.916c-6.258,5.195-8.218,13.792-8.051,21.593c0.351,12.054,4.03,23.738,8.587,34.811
		c5.324,12.488,11.795,24.607,20.308,35.228c11.545,0.564,23.072-0.712,34.543-1.913c13.311-1.618,26.668-3.365,39.655-6.794
		c11.749-3.818,23.562-7.413,35.486-10.658c6.35-2.006,13.098-2.866,19.217-5.528c4.76-0.388,9.318-1.867,13.958-2.884
		c20.465-4.659,41.125-8.754,62.08-10.473c19.162-1.904,38.259,1.738,56.978,5.491c39.415,8.338,78.063,19.781,117.006,30.042
		c18.173,4.677,36.346,9.724,54.963,12.359c18.635,1.904,37.381-0.536,55.832-3.18c44.055-7.016,87.315-18.247,130.178-30.439
		c7.94-2.487,16.149-4.215,23.839-7.423c4.391-0.333,8.606-1.876,13.015-2.255c23.368-2.866,46.93,1.285,69.54,7.08
		c6.785,1.562,13.329,4.141,20.188,5.389c8.449,3.753,17.498,5.981,26.067,9.493c11.231,4.298,22.471,8.634,33.49,13.468
		c26.418,13.329,55.573,20.318,84.81,23.95c41.754,5.019,84.089,3.587,125.741-1.738c19.467-2.625,38.925-5.851,57.801-11.388
		c11.037-2.976,22.416-4.465,33.795-5.398c19.957-1.599,40.025-1.599,60.01-0.536c4.271-23.46,4.271-47.484,2.718-71.204
		c-0.49-8.587-2.902-17.258-8.144-24.191c-6.378-8.661-16.315-13.939-26.464-16.897c-17.258-4.881-35.468-4.733-53.207-3.346
		c-65.547,6.249-131.177,11.693-196.769,17.387c-2.209-0.296-2.56,2.163-3.531,3.559c-17.748,1.119-35.496,2.394-53.262,3.171
		c1.349-1.026,2.644-2.117,3.975-3.161c-0.582-3.614-0.758-7.46-2.838-10.584c-3.614-5.639-6.914-11.499-11.028-16.786
		C905.277,1057.518,903.512,1059.247,902.403,1061.419 M731.525,1059.154c-0.019,3.605,0.009,7.21-0.028,10.824
		c0.055,6.979,0.018,13.967,0.018,20.946c12.303,0.037,24.588-0.767,36.882-1.155c1.396-0.102,2.81-0.139,4.224-0.305
		c8.125,0.056,16.232-0.675,24.357-0.767c-0.647-0.832-1.276-1.692-1.821-2.551l-0.592,0.092
		c-6.045-6.655-12.719-12.821-20.105-17.96c-3.494-2.736-8.051-2.671-12.211-3.392
		C751.972,1063.175,741.748,1061.141,731.525,1059.154 M482.945,1078.261c-5.962,4.298-11.388,9.345-16.065,15.012
		c19.144,0.638,38.296,0.823,57.44,1.359c-1.756-4.973-3.771-9.965-7.108-14.106c-3.448-4.492-8.356-8.245-14.134-8.855
		C495.757,1070.773,488.805,1074.221,482.945,1078.261 M269.463,1146.682c-28.655,5.722-57.338,11.702-85.31,20.262l-0.324,0.416
		c-6.84,2.311-13.893,3.975-21.094,4.622c-25.254,2.597-50.674,2.08-76.01,2.089c4.455,5.25,9.669,9.789,14.679,14.494
		c13.736,12.534,28.156,24.385,43.639,34.719c10.233,6.831,20.77,13.514,32.371,17.794c3.503,1.331,6.572,3.688,10.233,4.622
		c9.225,5.565,19.883,8.134,30.338,10.26c5.916,0.998,11.841,2.357,17.859,2.44c8.199,1.599,16.629,1.266,24.921,1.997
		c37.936,1.34,75.872-1.248,113.669-4.326c4.067-0.323,8.218-0.323,12.202-1.359c26.28-1.858,52.393-5.518,78.571-8.495
		c43.362-3.873,86.807-7.339,130.335-8.671c11.065-0.083,22.249-0.721,33.166,1.47c5.805,0.758,12.044,2.071,17.683-0.092
		c1.692-3.254,2.579-6.988,5.121-9.752c6.008-6.886,14.522-10.889,22.989-13.884c7.118-2.413,14.272-5.001,21.769-5.944
		c7.7-0.971,15.15,1.655,22.564,3.3c10.824,2.468,21.011,7.201,30.449,12.987c10.029,6.48,19.606,13.643,29.441,20.419
		c3.42,2.57,7.709,0.102,11.518,0.037c20.697-1.987,41.55-1.313,62.293-0.592c48.215,2.107,96.198,7.543,144.164,12.728
		c40.681,4.335,81.326,9.225,122.118,12.488c18.034,1.183,36.226,2.459,54.233,0.277c7.912-1.035,15.991-3.069,22.397-8.079
		c11.564-8.763,20.438-20.475,28.84-32.177c10.889-15.594,20.623-31.974,29.358-48.853c-16.417-0.776-32.935-1.479-49.324,0.157
		c-6.101,0.499-11.97,2.311-17.6,4.613c-37.243,13.681-76.907,18.256-116.036,23.174c-25.485,2.81-51.071,5.583-76.75,5.01
		c-7.561-0.12-15.16-0.998-22.323-3.513c-37.64-12.035-74.818-25.475-112.051-38.703c-5.722-1.849-11.185-4.538-17.045-5.879
		c-11.582-5.066-23.811-8.541-35.274-13.893c-5.528-2.607-11.471-4.363-17.581-4.751c-11.712-0.795-23.46,0.305-35.024,2.126
		c-17.202,2.708-34.303,6.175-51.071,10.908c-9.761,2.653-18.829,7.247-28.452,10.316c-23.331,7.728-46.893,14.781-70.714,20.807
		c-9.891,2.2-19.883,5.278-30.125,4.215c-13.228-1.202-26.381-3.124-39.507-5.075c-38.999-5.981-77.868-12.766-116.618-20.133
		c-17.905-3.568-35.93-6.739-53.373-12.229c-19.855-5.768-39.461-12.95-60.047-15.76
		C292.859,1141.487,281.101,1144.713,269.463,1146.682 M697.573,1217.96c-9.66,2.616-19.291,5.398-28.942,8.079
		c-3.013,0.471-3.966,3.624-5.139,5.99c-1.756,4.169-3.855,8.458-3.836,13.08c1.035,4.391,4.65,7.552,7.718,10.658
		c8.319,7.672,17.766,14.06,27.629,19.569c4.428,2.357,9.022,5.001,14.18,5.093c6.544,0.167,12.913-1.784,18.931-4.16
		c8.449-3.439,16.426-7.949,24.052-12.923c4.603-2.588,5.315-8.504,5.232-13.255c-2.182-2.108-5.223-2.967-7.792-4.474
		c-16.093-8.708-31.909-17.933-47.743-27.102C700.568,1217.636,699.033,1217.461,697.573,1217.96 M469.782,1254.713
		c-43.732,6.175-87.02,15.058-130.289,23.793c13.708,26.677,30.31,51.764,48.058,75.909c23.664,32.057,49.527,62.432,76.445,91.789
		c47.688,51.737,98.565,100.488,151.596,146.706c-1.137-45.858,5.592-91.558,15.964-136.122
		c9.271-39.535,21.529-78.34,36.05-116.248c7.118-18.441,14.54-36.799,23.276-54.547c-3.725-4.363-8.329-7.811-12.793-11.342
		c-8.19-6.36-16.648-12.359-25.041-18.432c-1.46-1.137-3.124-2.043-5.001-2.024c-33.453-2.903-66.998-4.659-100.58-5.149
		C521.472,1248.889,495.525,1251.219,469.782,1254.713z"/>
	<path fill="#77B5EF" stroke="#77B5EF" d="M339.946,178.208c19.07-33.323,39.073-66.166,61.23-97.548
		C557.985,208.037,714.84,335.359,871.908,462.403c110.258,89.146,220.507,178.31,331.246,266.845
		c34.229,27.102,68.089,54.695,103.03,80.891c-46.385,16.602-92.307,34.479-137.943,53.021c-3.559,1.331-7.025,3.559-10.981,3.032
		c16.121-7.497,32.417-14.605,48.76-21.612c4.372-1.923,9.096-3.198,13.089-5.916c-2.662-6.397-6.72-12.109-10.242-18.044
		c-3.734-5.445-7.007-11.379-11.915-15.862c-3.069,0.564-5.694,2.339-8.329,3.882c-4.381,2.653-8.892,5.075-13.375,7.543
		c-3.818-6.406-7.025-13.163-11.028-19.43c-1.155-2.209-3.891-1.072-5.759-0.813c-14.568,3.808-29.247,7.155-43.778,11.055
		c-3.235,1.008-6.729,0.786-9.724-0.804c-13.949-6.665-28.027-13.302-40.774-22.129c-3.198-2.292-6.452-4.622-8.957-7.681
		c-1.802-2.228-2.348-5.093-3.004-7.783c-7.802,2.468-15.677,4.668-23.719,6.184c1.895-4.326,4.511-9.512,1.812-14.069
		c-3.374-5.444-8.818-9.114-13.357-13.486c-12.553-11.481-25.263-22.813-37.178-34.969c-6.202-6.147-12.349-12.396-17.628-19.375
		c-4.705-6.092-6.286-13.792-8.615-20.955c-2.45-8.079-4.945-16.149-7.007-24.329c-0.758-2.329-1.294-5.602-4.234-5.981
		c-6.674-1.775-13.496-2.939-20.151-4.77c-3.679-9.04-7.062-18.192-10.667-27.26c-1.673-4.548-6.119-6.933-9.835-9.576
		c-3.429-2.376-6.813-4.807-10.224-7.173c-18.506,27.879-36.577,56.053-54.889,84.062c-5.916-1.211-11.795-2.625-17.738-3.688
		c-10.002,16.038-20.392,31.826-30.393,47.854c-6.942,0.139-13.875-1.497-20.78-0.666c-4.409,2.145-6.794,6.859-10.076,10.325
		c-12.414,14.707-24.939,29.321-37.326,44.055c-1.701,1.987-3.485,3.91-5.297,5.814c-0.712-0.61-1.405-1.22-2.089-1.821
		c-4.141-8.643-9.558-16.749-16.463-23.423c-2.912-2.875-6.637-4.677-10.427-6.064c-2.967-15.317-6.443-30.781-13.588-44.758
		c-3.531-6.831-8.412-13.487-15.733-16.528c2.801-13.061,4.613-26.326,5.62-39.637c0.407-9.955,1.729-20.558-2.616-29.875
		c3.901-5.759,8.356-11.203,11.693-17.359c5.213,3.05,10.445,6.776,16.592,7.515c2.265,0.24,2.801-2.385,3.716-3.91
		c2.699-5.278,4.003-11.601,8.449-15.77c4.502,1.331,8.68,4.428,13.625,3.707c7.136-0.869,11.564-7.45,14.392-13.431
		c3.873-8.726,6.147-18.053,8.855-27.176c1.664-7.09,4.215-14.54,2.376-21.833c-1.599-6.323-10.14-6.683-11.971-12.793
		c-1.128-3.66,1.969-6.97,1.322-10.639c-1.072-13.006-3.771-26.049-9.391-37.89c-4.16-8.726-10.741-16.722-19.828-20.558
		c1.497-9.595,4.345-18.94,6.387-28.378c-1.895-4.021-4.345-7.755-6.341-11.721c-5.814-1.109-11.767-1.553-17.517-2.921
		c-15.206-7.626-29.728-17.008-46.043-22.166c-8.92-2.597-18.145-4.483-27.463-4.511c-2.644,0.166-5.805,0.065-7.774,2.126
		c-0.767,1.534-0.878,3.281-1.026,4.964c-0.407,7.681,0.37,15.372,0.028,23.063c-0.129,3.087-2.043,5.676-3.06,8.513
		c-1.729,3.956-2.653,8.227-4.455,12.155c-4.52,4.409-9.789,7.996-14.513,12.192c-1.83-1.294-3.623-2.634-5.426-3.947
		c-4.548,6.618-8.902,13.376-13.431,20.013c-5.324-4.918-10.704-9.771-16.01-14.707c-2.228,1.766-4.455,3.54-6.692,5.297
		c-9.29-19.68-18.663-39.424-30.522-57.708c-2.727-3.993-5.5-8.042-9.151-11.25c-2.939-2.671-7.127-2.903-10.889-3.05
		c-12.202-0.203-24.2,2.394-36.059,4.899c-2.459-3.05-3.3-7.219-5.25-10.639c-5.592-11.028-11.277-22.721-21.103-30.624
		c-7.626-4.576-15.686-8.402-23.553-12.553c-15.945-8.014-32.131-15.705-49.084-21.371c-7.913-2.468-16.176-4.788-24.551-3.827
		c-2.385-10.908-10.843-19.911-20.798-24.542c-4.844-2.44-10.334-2.126-15.566-2.625
		C304.977,242.063,322.032,209.876,339.946,178.208z"/>
	<path fill="#CCCCCC" stroke="#CCCCCC" d="M116.37,219.961c11.379-1.118,22.86-0.684,34.257,0.009
		c6.831,0.536,13.708,0.971,20.401,2.523c10.076,3.208,21.371-1.183,31.068,3.855c4.677,2.145,6.48,7.201,9.022,11.286
		c12.1,19.264,26.086,37.243,39.175,55.813c-1.904-0.952-3.762-2.015-5.518-3.217c-11.12-8.023-21.686-16.805-33.046-24.496
		c-15.354-10.658-31.354-20.475-48.28-28.452c-17.008-7.718-35.782-14.845-54.75-11.481c-1.599-0.527-3.032-1.414-4.52-2.154
		C107.533,220.747,112.192,220.617,116.37,219.961z"/>
	<path fill="#999999" stroke="#999999" d="M108.698,225.803c18.968-3.365,37.742,3.762,54.75,11.481
		c16.925,7.977,32.926,17.794,48.28,28.452c11.36,7.691,21.926,16.472,33.046,24.496c1.137,6.554,3.568,12.793,5.102,19.255
		c-14.097,13.154-28.11,26.409-42.142,39.646c-2.163,1.867-4.15,5.066-7.469,4.039c-18.108-2.875-36.596-4.733-53.974-10.889
		c-6.073-1.932-12.386-3.226-18.191-5.916c-1.747-0.924-4.012-2.08-4.012-4.363c-0.416-3.975-0.712-7.959-1.461-11.897
		c18.321-2.339,36.67-4.77,55.148-5.481c3.318-0.083,6.702-1.729,8.227-4.788c2.015-3.984,1.747-8.634,1.645-12.969
		c-0.453-5.87-0.296-12.192-3.66-17.313c-5.99-9.484-16.343-14.623-25.17-21.011c-11.49-7.367-25.716-7.58-38.463-11.481
		c-8.07-3.707-11.758-12.784-13.828-20.872C107.071,226.09,108.152,225.905,108.698,225.803z"/>
	<path fill="#FFCC33" stroke="#FFCC33" d="M252.593,286.756c11.333-4.067,23.941-4.982,35.542-1.442
		c10.455,3.078,19.929,9.197,27.306,17.193c1.026,1.183,2.329,2.08,3.799,2.662c36.383,15.354,72.738,30.772,109.121,46.117
		c1.266,0.573,2.829,1.128,2.949,2.755c2.764,10.196,7.302,19.754,10.935,29.626c-12.377-7.534-24.246-15.871-36.614-23.414
		c-30.855-19.06-62.589-36.91-96.125-50.849c-15.613-6.239-31.586-12.229-48.353-14.374
		C257.113,294.141,255.431,289.436,252.593,286.756z"/>
	<path fill="#999933" stroke="#999933" d="M261.153,295.029c16.768,2.145,32.741,8.134,48.353,14.374
		c33.536,13.939,65.269,31.789,96.125,50.849c12.368,7.543,24.237,15.881,36.614,23.414c1.387,1.387,2.496,3.023,3.993,4.308
		c1.146-0.028,2.292-0.111,3.448-0.222c9.928,1.192,19.476,4.224,29.191,6.434c3.411,0.675,5.805,3.328,8.181,5.648
		c4.603,4.659,9.937,8.624,13.828,13.949c5.916,7.996,11.869,15.982,17.184,24.394c1.839,3.023,3.91,6.96,1.534,10.297
		c-6.544,10.436-15.076,19.439-23.109,28.72c-0.425,0.157-1.285,0.462-1.719,0.619c-16.537-27.685-36.827-53.151-60.537-75.04
		c-49.435-45.682-112.014-76.731-178.005-89.636C258.075,307.156,259.563,301.074,261.153,295.029z"/>
	<path fill="#004B18" stroke="#004B18" d="M255.588,312.989l0.647,0.148c65.99,12.904,128.57,43.954,178.005,89.636
		c23.71,21.889,44,47.355,60.537,75.04c0.434-0.157,1.294-0.462,1.719-0.619c0.287,0.361,0.85,1.081,1.128,1.433
		c-5.139,2.884-9.512,6.896-14.513,9.983c-16.694,10.621-34.414,19.495-52.328,27.851c1.109,3.013,2.348,5.99,4.002,8.763
		c3.55,6.147,6.896,12.525,11.665,17.849c2.829,3.189,7.164,4.132,10.981,5.648c6.535,2.514,13.006,5.287,19.162,8.661
		c4.335,2.32,7.053,6.563,9.946,10.381c2.45,3.235,4.539,6.757,6.055,10.547c2.958,7.256,6.397,14.318,10.344,21.085
		c2.782,4.677,6.027,9.429,10.981,12.017c4.28,2.283,8.671,4.391,12.719,7.118c-1.174,2.237-2.357,4.474-3.559,6.702
		c1.34,1.211,2.422,2.93,4.178,3.568c2.986,0.194,5.953-0.407,8.92-0.758c-1.701,2.949-3.254,6.387-6.591,7.811
		c-21.565,10.316-42.003,23.941-57.505,42.345c-4.252,4.992-7.589,10.667-10.852,16.333c-5.879-7.219-10.917-16.047-20.012-19.606
		c-10.251-3.984-21.39-0.444-31.207,3.134c-17.378,6.683-34.063,15.16-49.832,25.041c-7.108,4.261-13.061,10.103-19.837,14.827
		c-1.063-3.956-2.274-8.236-0.739-12.239c3.91-9.595,11.795-16.759,17.655-25.124l0.416-0.508
		c10.288-12.026,20.817-23.876,30.846-36.124c-9.983-3.707-20.327-7.367-28.507-14.42c-3.577-3.087-6.776-7.663-5.768-12.627
		c1.146-4.696,4.982-8.014,8.393-11.157c17.692-14.901,38.74-24.912,59.187-35.385c-9.918-5.334-19.929-10.519-30.273-14.965
		c-4.742-1.932-9.086-4.696-12.969-8.005c2.024-1.313,4.058-2.579,6.11-3.845c0.018-0.61,0.065-1.83,0.083-2.44
		c-2.81-2.08-7.367-2.976-8.55-6.508c2.302-4.492,4.844-8.929,5.796-13.967c5.703-2.265,11.379-4.585,17.054-6.924
		c3.013-1.368,6.526-2.838,7.885-6.11c-0.24-3.06-2.949-5.029-5.324-6.535c-8.661-5.195-18.598-7.977-26.908-13.792
		c-2.699-1.932-5.491-4.659-5.463-8.218c0.231-3.725,3.208-6.434,5.824-8.744c7.709-6.378,16.213-12.35,21.436-21.112
		c2.218-3.633,3.309-8.56,0.823-12.331c-3.097-4.613-8.495-6.877-13.588-8.532c-7.339-2.2-14.919-3.476-22.222-5.833
		c6.498-6.729,13.542-12.95,19.56-20.133c1.793-2.145,2.902-4.733,3.919-7.312c-7.173-0.222-14.124,1.71-21.103,3.05
		c-9.068,1.821-18.034,4.058-27.093,5.916c4.317-16.703,10.066-33.037,13.93-49.851c-9.262,7.728-17.859,16.232-26.224,24.921
		c-3.05,3.06-5.343,6.97-9.022,9.345c-6.064,0.786-12.174,1.47-18.034,3.337c-5.435-4.76-10.362-10.057-15.391-15.234
		c-6.711-7.302-13.727-14.328-20.29-21.769c-10.658,2.496-20.946,6.369-31.641,8.735c1.839-4.807,4.326-9.318,6.702-13.865
		C243.054,337.392,249.432,325.246,255.588,312.989z"/>
	<path fill="#77B5EF" stroke="#77B5EF" d="M243.47,385.94c8.292-0.582,16.583-1.211,24.875-1.719
		c1.451-0.333,2.385,0.915,3.318,1.784c12.276,12.322,24.496,24.699,36.919,36.873c6.193-8.412,12.331-16.87,18.617-25.217
		c-2.126,7.968-4.502,15.853-6.517,23.849c12.451-2.505,24.828-5.334,37.261-7.903c-10.612,8.966-21.344,17.794-31.992,26.723
		c10.186,17.674,20.502,35.264,30.735,52.911c3.892,7.007,8.347,13.727,11.906,20.909c-1.627,7.746-5.038,15.187-6.175,22.961
		c4.141,6.249,8.717,12.211,12.997,18.376c-25.355,15.853-43.778,41.966-51.367,70.797c-1.091,4.502-4.003,8.227-6.341,12.146
		c-7.506,11.619-15.659,22.98-25.762,32.501c-3.235,3.097-6.96,5.611-10.852,7.802c16.87-0.666,33.758-1.433,50.646-1.128
		c-14.226,7.977-28.701,15.668-41.772,25.512c-6.544,5.149-13.662,10.427-17.36,18.127c0.582,7.922,1.118,15.89,0.786,23.858
		c-16.112,6.332-30.966,15.298-46.449,22.961c-9.456-9.623-18.58-19.578-28.184-29.053c-6.711-6.535-12.932-13.56-19.754-19.985
		c-0.213,4.354-0.444,8.707-0.832,13.061c-0.582,7.765,0.203,15.539,0.305,23.312c0.148,10.27,0.832,20.53,0.943,30.809
		c-1.488-5.102-1.276-10.482-1.812-15.723c-6.276-88.656,4.955-177.866,26.788-263.795c10.15-40.099,22.73-79.56,37.049-118.365
		C241.926,387.456,242.13,385.792,243.47,385.94z"/>
	<path fill="#FFCC33" stroke="#FFCC33" d="M447.523,387.262c14.993-0.36,29.996,0.028,44.998-0.111
		c10.556,15.15,21.075,30.393,30.088,46.532c1.95,3.845,4.381,7.691,4.797,12.081c-0.897,4.086-3.956,7.247-6.461,10.455
		c-7.071,8.19-14.836,15.76-22.813,23.054l-0.508-0.647c-0.277-0.351-0.841-1.072-1.128-1.433
		c8.033-9.281,16.565-18.284,23.109-28.72c2.376-3.337,0.305-7.275-1.534-10.297c-5.315-8.412-11.268-16.398-17.184-24.394
		c-3.892-5.324-9.225-9.29-13.828-13.949c-2.376-2.32-4.77-4.973-8.181-5.648c-9.715-2.209-19.264-5.241-29.191-6.434
		C448.956,387.595,448.235,387.437,447.523,387.262z"/>
	<path fill="#CCCCCC" stroke="#CCCCCC" d="M604.933,388.334c5.981-3.808,13.339-1.424,19.486,0.684
		c3.984,1.664,8.624,2.708,11.434,6.276c5.121,5.759,11.887,10.122,19.338,12.155c9.789,2.431,19.772,3.975,29.626,6.092
		c-1.784,0.924-3.577,1.83-5.417,2.616c-21.334,2.496-42.659,5.103-64.058,6.988c8.449,4.252,17.507,7.552,26.899,8.874
		c4.455,0.98,9.456,0.961,13.348,3.559c2.699,3.429,4.659,7.672,5.149,12.026c-0.425,5.269-2.237,10.464-4.973,14.965
		c-3.124,4.455-6.628,8.624-9.992,12.895c-4.714,2.209-9.549,4.15-14.374,6.082c-13.339-11.943-26.659-23.923-39.933-35.939
		c5.112-8.634,12.516-16.204,15.797-25.901c1.581-8.19,0.656-16.611,0.24-24.875C607.641,392.327,605.922,390.46,604.933,388.334z"
		/>
	<path fill="#006A25" stroke="#006A25" d="M297.471,391.754c5.861-1.867,11.971-2.551,18.034-3.337
		c-2.357,4.308-5.454,8.199-7.182,12.83C304.469,398.363,300.901,395.128,297.471,391.754z"/>
	<path fill="#999999" stroke="#999999" d="M686.314,412.765c1.47,0.721,2.958,1.433,4.474,2.117c-0.693,0.12-2.089,0.37-2.782,0.49
		c3.762,10.612,5.75,21.87,5.537,33.148c9.66,6.84,17.332,16.463,21.436,27.602c5.176,13.311,5.528,27.814,5.334,41.911
		c-16.186-13.32-36.3-21.085-56.747-24.93c-4.955-1.026-9.53-3.291-14.281-4.973c-5.213-2.024-10.529-3.827-15.622-6.138
		c4.003-2.191,9.456-2.348,12.109-6.526c3.365-4.271,6.868-8.439,9.992-12.895c2.736-4.502,4.548-9.697,4.973-14.965
		c-0.49-4.354-2.45-8.597-5.149-12.026c-3.892-2.597-8.892-2.579-13.348-3.559c0.407-0.074,1.22-0.231,1.627-0.305
		c-8.245-3.06-16.981-4.668-25.096-8.107c6.868-0.961,13.819-0.065,20.715-0.712c8.781-0.832,17.563-1.784,26.344-2.616
		c5.26-0.582,10.935-0.351,15.483-3.531c-0.481-0.148-1.433-0.444-1.913-0.592c1.839-0.786,3.633-1.692,5.417-2.616
		C685.186,413.347,685.935,412.959,686.314,412.765z"/>
	<path stroke="#000000" d="M615.341,423.146c21.399-1.886,42.724-4.492,64.058-6.988c0.481,0.148,1.433,0.444,1.913,0.592
		c-4.548,3.18-10.223,2.949-15.483,3.531c-8.781,0.832-17.563,1.784-26.344,2.616c-6.896,0.647-13.847-0.25-20.715,0.712
		c8.116,3.439,16.851,5.047,25.096,8.107c-0.407,0.074-1.22,0.231-1.627,0.305C632.849,430.698,623.79,427.398,615.341,423.146z"/>
	<path fill="#006A25" stroke="#006A25" d="M346.398,436.04c4.992-4.585,10.048-9.096,15.141-13.56
		c7.302,2.357,14.882,3.633,22.222,5.833c5.093,1.655,10.491,3.919,13.588,8.532c2.487,3.771,1.396,8.698-0.823,12.331
		c-5.223,8.763-13.727,14.734-21.436,21.112c-2.616,2.311-5.592,5.019-5.824,8.744c-0.028,3.559,2.764,6.286,5.463,8.218
		c8.31,5.814,18.247,8.597,26.908,13.792c2.376,1.507,5.084,3.476,5.324,6.535c-1.359,3.272-4.871,4.742-7.885,6.11
		c-5.676,2.339-11.351,4.659-17.054,6.924c-0.361-5.398-1.451-11-5.001-15.28c-4.215-5.047-8.892-9.724-12.59-15.197
		c-8.245-11.804-15.945-24.348-19.939-38.287C343.236,446.698,341.841,440.006,346.398,436.04z"/>
	<path fill="#CCCCCC" stroke="#CCCCCC" d="M565.74,458.78c1.729-4.927,3.549-9.817,5.352-14.707
		c5.879,3.633,11.545,7.608,17.526,11.083c-5.361,3.605-11.166,6.498-16.334,10.381C570.214,463.171,567.968,460.98,565.74,458.78z"
		/>
	<path fill="#FFCC33" stroke="#FFCC33" d="M491.837,496.457c18.302-11.564,34.969-26.372,46.292-44.989
		c3.596,2.644,7.164,5.315,10.713,8.023c-4.797,19.828-10.325,39.646-19.144,58.106c-3.383,6.729-7.145,13.579-13.274,18.21
		c-12.294-5.139-24.209-11.176-36.697-15.844c-7.672-2.866-15.76-4.936-23.996-4.594
		C467.998,509.527,480.394,503.833,491.837,496.457z"/>
	<path fill="#999999" stroke="#999999" d="M588.618,455.156c10.057,7.839,19.846,16.019,29.672,24.144
		c-5.25,2.829-10.612,5.454-15.991,8.033c-5.25-5.056-10.935-9.641-16.777-13.986c-4.16-3.013-8.208-6.406-13.237-7.811
		C577.452,461.655,583.257,458.761,588.618,455.156z"/>
	<path fill="#999933" stroke="#999933" d="M548.843,459.492c2.135,1.377,4.308,2.708,6.452,4.076
		c0.462,19.328,1.424,38.648,1.433,57.995c0,3.707,0.037,7.478-0.897,11.102c-2.801,10.427-8.079,19.929-12.451,29.709
		c2.034,4.807,5.361,8.948,7.755,13.579c-5.916,11.102-11.61,22.333-17.47,33.471c-0.971,2.191-3.06,3.374-5.204,4.16
		c-0.971-22.351-2.45-44.767-1.303-67.127c-0.49-5.648-6.304-8.347-10.732-10.649c6.129-4.631,9.891-11.481,13.274-18.21
		C538.518,499.137,544.045,479.319,548.843,459.492z"/>
	<path fill="#CCCCCC" stroke="#CCCCCC" d="M561.812,464.307c10.981,7.238,21.713,14.845,32.242,22.721
		c5.592,4.483,11.693,8.597,15.964,14.466c-13.375-1.516-26.622-3.947-39.886-6.221c-1.562-0.481-4.169-0.342-4.308-2.514
		C564.427,483.285,563.022,473.81,561.812,464.307z"/>
	<path fill="#999999" stroke="#999999" d="M564.89,495.44c13.394,2.357,26.927,4.16,40.173,7.256
		c-14.42-0.675-28.757,3.078-41.439,9.854C563.91,506.837,564.372,501.134,564.89,495.44z"/>
	<path fill="#FFCCCC" stroke="#FFCCCC" d="M561.885,521.96c15.261-8.134,32.445-12.063,49.601-13.375
		c4.982,12.211,9.817,24.486,15.021,36.605c3.734,8.402,7.155,17.027,12.044,24.847c3.208,4.141,6.988,7.987,11.453,10.787
		c2.265,1.451,5.149,1.997,7.709,0.98c8.504-2.819,16.657-7.071,25.66-8.107c5.343-0.924,10.843,4.123,10.039,9.558
		c-1.174,5.981-2.755,11.869-4.049,17.822c-8.19-2.283-16.685-4.908-23.183-10.649c-1.562-1.239-3.18-2.422-4.779-3.605
		c-3.707,7.266-2.348,15.705-3.18,23.553c-1.146,1.849-3.18,2.838-4.862,4.113c-5.158,3.457-10.039,7.321-15.307,10.584
		c-4.003,0.601-8.023,1.1-12.054,1.202c-1.599-0.314-3.161-0.749-4.631-1.424c-2.597-4.049-5.38-7.95-8.255-11.795
		c-9.586-13.496-17.119-28.655-20.761-44.878c-1.719-7.293-1.368-14.854-2.579-22.231c1.137-5.38,3.845-10.251,5.787-15.354
		c-6.369,8.449-12.34,17.323-16.777,26.964c-0.518,0.897-0.813,1.997-1.636,2.69c-7.034,3.54-13.588,7.94-20.456,11.786
		c-1.858-2.376-3.697-4.742-5.555-7.099C556.839,551.29,561.543,536.87,561.885,521.96z"/>
	<path fill="#CCCCCC" stroke="#CCCCCC" d="M445.619,517.837c13.792,1.904,27.102,6.249,40.182,10.861
		c9.133,3.402,18.284,6.831,27.093,11.018c-4.613,3.143-9.66,5.592-14.318,8.661C480.569,538.83,463.071,528.357,445.619,517.837z"
		/>
	<path fill="#999999" stroke="#999999" d="M512.894,539.717c2.385-0.647,4.03,2.339,4.797,4.271
		c3.245,8.791,3.827,18.284,4.705,27.546c0.795,12.96,1.442,25.984,0.666,38.962c-2.542-14.559-5.297-29.173-10.279-43.131
		c-1.876-4.89-3.882-9.928-7.46-13.856c-1.738-2.015-4.391-2.653-6.702-3.716c-0.009-0.351-0.037-1.063-0.046-1.414
		C503.235,545.31,508.282,542.86,512.894,539.717z"/>
	<path fill="#FFFFFF" stroke="#FFFFFF" d="M589.774,545.947c1.211,7.376,0.86,14.938,2.579,22.231
		c3.642,16.223,11.176,31.382,20.761,44.878c2.875,3.845,5.657,7.746,8.255,11.795c-5.149-1.516-9.845-4.687-12.433-9.484
		c-7.136-8.837-14.642-17.739-18.524-28.591C585.401,573.808,585.327,559.073,589.774,545.947z"/>
	<path fill="#006A25" stroke="#006A25" d="M369.22,566.154c7.608-3.245,15.049-6.868,22.333-10.778
		c10.344,4.446,20.354,9.632,30.273,14.965c-20.447,10.473-41.495,20.484-59.187,35.385c-3.411,3.143-7.247,6.461-8.393,11.157
		c-1.008,4.964,2.191,9.539,5.768,12.627c8.181,7.053,18.524,10.713,28.507,14.42c-10.029,12.248-20.558,24.098-30.846,36.124
		c-6.942-3.596-14.078-6.979-21.704-8.846c-9.456-2.154-19.125-3.374-28.47-6.018c6.018-8.671,12.655-16.888,19.236-25.124
		c5.518-8.144,9.567-17.175,13.727-26.049c2.542-5.315,2.893-11.36,5.565-16.62c3.734-7.681,8.06-15.095,13.135-21.972
		C361.872,571.746,364.885,567.975,369.22,566.154z"/>
	<path fill="#C0A08B" stroke="#C0A08B" d="M556.691,572.033c6.868-3.845,13.422-8.245,20.456-11.786
		c-2.154,7.33-4.696,14.651-5.029,22.37c-0.85,10.353,1.211,20.687,4.391,30.495c-13.468,2.533-26.88,5.417-40.043,9.281
		c7.95-15.169,16.029-30.273,24.043-45.405C559.233,575.333,557.966,573.678,556.691,572.033z"/>
	<linearGradient id="SVGID_1_" gradientUnits="userSpaceOnUse" x1="656.8937" y1="473.108" x2="704.8937" y2="593.108">
		<stop  offset="0" style="stop-color:#CCAD9D"/>
		<stop  offset="0.2311" style="stop-color:#6E3018"/>
		<stop  offset="0.3323" style="stop-color:#915943"/>
		<stop  offset="0.5598" style="stop-color:#E8C1AE"/>
		<stop  offset="0.6033" style="stop-color:#F9D5C3"/>
		<stop  offset="0.7117" style="stop-color:#E4B69F"/>
		<stop  offset="0.9516" style="stop-color:#AF6843"/>
		<stop  offset="1" style="stop-color:#A45830"/>
	</linearGradient>
	<path fill="url(#SVGID_1_)" stroke="#A45830" d="M733.438,530.936c-0.915-1.109-1.839-2.182-2.866-3.152
		c-2.56-2.348-5.186-4.788-8.421-6.156c-3.402-2.348-6.96-4.631-10.926-5.86c-6.997-3.956-14.707-6.341-22.157-9.253
		c-2.625-0.887-5.232-2.191-8.042-2.181c-2.662-1.257-5.408-2.727-8.412-2.755c-2.893-1.072-5.814-2.662-8.976-2.523
		c-2.2-0.897-4.409-1.978-6.813-2.089c-5.001-1.525-10.085-2.81-15.187-3.947c-3.3-0.98-5.62,2.043-7.478,4.243
		c-0.693,0.897-1.285,1.867-1.839,2.856c-0.268,0.388-0.813,1.165-1.081,1.553c-1.266,0.12-0.952,2.348-1.544,3.3l-0.767-0.009
		c-1.886,3.374-3.873,6.683-5.86,9.992l-1.1-0.046c-0.481,2.681-0.416,5.407,0.564,7.977c0.85,1.876,1.682,3.771,2.431,5.703
		l0.555-0.074c0.342,0.638,1.026,1.895,1.368,2.523c1.211,2.413,2.597,4.742,3.818,7.164l0.712-0.028
		c0.989,2.015,2.015,4.095,3.623,5.722c1.331,2.117,2.477,4.455,4.345,6.184c0.749,1.257,1.534,2.514,2.283,3.799l0.481-0.055
		c3.004,4.271,5.833,8.948,9.752,12.396c13.209-1.174,26.437-3.143,39.729-2.681c2.847-0.092,4.659,2.32,6.249,4.326
		c0.675,1.627,1.414,3.245,2.108,4.89c0.629,1.701,1.257,3.402,1.895,5.121c0.518,1.581,1.045,3.171,1.562,4.76
		c0.897,2.145,1.682,4.465,3.374,6.147c3.614,0.434,5.398-3.642,7.164-6.119c1.063-1.424,1.932-2.976,2.829-4.511
		c0.823-1.673,1.627-3.355,2.487-5.01c0.786-1.729,1.571-3.466,2.366-5.186c1.913-4.862,4.289-9.623,5.417-14.716l0.786,0.018
		c0.065-0.841,0.213-2.523,0.287-3.365l0.592,0.083c0.435-1.904,1.017-3.771,1.414-5.676l0.536,0.065
		c0.305-1.433,0.666-2.847,0.924-4.28c1.109-2.995,1.886-6.092,2.671-9.17L733.438,530.936z"/>
	<path fill="#C0A08B" stroke="#C0A08B" d="M658.223,610.375c0.832-7.848-0.527-16.287,3.18-23.553
		c1.599,1.183,3.217,2.366,4.779,3.605C666.015,597.776,663.418,605.06,658.223,610.375z"/>
	<path fill="#C2DCF5" stroke="#C2DCF5" d="M891.421,592.84c3.411,2.366,6.794,4.797,10.224,7.173
		c3.716,2.644,8.162,5.029,9.835,9.576c3.605,9.068,6.988,18.219,10.667,27.26c6.656,1.83,13.477,2.995,20.151,4.77
		c2.939,0.379,3.476,3.651,4.234,5.981c2.061,8.181,4.557,16.25,7.007,24.329c2.329,7.164,3.91,14.864,8.615,20.955
		c5.278,6.979,11.425,13.228,17.628,19.375c11.915,12.155,24.625,23.488,37.178,34.969c4.539,4.372,9.983,8.042,13.357,13.486
		c2.699,4.557,0.083,9.743-1.812,14.069c8.042-1.516,15.918-3.716,23.719-6.184c0.656,2.69,1.202,5.555,3.004,7.783
		c2.505,3.06,5.759,5.389,8.957,7.681c12.747,8.828,26.825,15.465,40.774,22.129c2.995,1.59,6.489,1.812,9.724,0.804
		c14.531-3.901,29.21-7.247,43.778-11.055c1.867-0.259,4.603-1.396,5.759,0.813c4.003,6.267,7.21,13.024,11.028,19.43
		c4.483-2.468,8.994-4.89,13.375-7.543c2.634-1.544,5.26-3.318,8.329-3.882c4.908,4.483,8.181,10.418,11.915,15.862
		c3.522,5.934,7.58,11.647,10.242,18.044c-3.993,2.718-8.717,3.993-13.089,5.916c-16.343,7.007-32.639,14.115-48.76,21.612
		c-65.981,30.143-130.095,64.742-190.142,105.525c-20.133,13.838-39.932,28.212-58.725,43.833
		c-6.156-4.076-12.183-8.865-19.596-10.344c-5.685-12.146-14.688-22.453-24.976-30.948c-11.952-9.909-25.577-17.591-39.637-24.098
		c1.183-15.705-0.157-31.475,0.721-47.189c5.01,6.008,8.92,12.812,13.449,19.181c9.364,13.736,18.728,27.472,28.027,41.264
		c1.414,2.006,2.976,3.91,4.566,5.805c-3.55-11.749-8.707-22.934-12.923-34.442c-1.544-3.947-0.157-8.116,1.026-11.943
		c2.487-7.672,4.502-15.502,6.877-23.211c5.038,18.885,8.8,38.084,13.634,57.024c15.317,4.798,30.532,9.965,46.015,14.245
		c-8.763-13.597-18.654-26.428-27.879-39.711c-4.012-5.842-8.384-11.425-12.34-17.304c-2.459-3.069-0.194-6.85,0.971-9.946
		c4.992-11.259,8.976-22.952,14.291-34.072c1.423,9.9,0.471,19.966,1.923,29.875c2.93-3.559,5.86-7.118,8.892-10.593
		c1.618,14.577,1.109,29.339,3.217,43.861c1.22-4.354,2.45-8.708,3.725-13.043c1.063,3.171,2.154,6.341,3.318,9.493
		c0.85-15.834-0.73-31.669-0.518-47.503c4.4,13.644,7.266,27.731,11.832,41.319c2.154-6.018,3.559-12.266,5.463-18.358
		c5.953,4.548,11.462,9.641,17.193,14.457c4.381,3.587,3.688,9.817,4.65,14.855c0.573,4.594,1.377,9.16,2.255,13.718
		c3.097-2.819,6.11-5.75,8.772-8.994c1.83-2.098,3.559-4.446,6.055-5.805c7.044,1.775,13.413,5.537,20.142,8.236
		c3.217,1.183,6.868,3.947,10.316,1.895c7.099-3.929,13.921-8.365,20.955-12.423c11.148-6.942,22.776-13.311,32.778-21.917
		c-5.333-9.077-11.407-17.692-17.202-26.465c-1.1-1.923-2.764-4.086-1.923-6.406c1.96-6.443,6.822-11.934,7.016-18.903
		c0.185-16.065-0.222-32.131,0.157-48.196c4.446,7.866,7.626,16.352,11.943,24.292c5.509-4.095,9.946-9.419,15.548-13.394
		c-0.86,10.14-3.032,20.114-4.169,30.236c-1.165,10.334-2.93,20.752-1.673,31.17c0.869,7.672,1.488,15.381,2.44,23.054
		c8.412-5.315,16.565-11,24.875-16.472c4.354-3.097,9.124-5.611,13.292-8.957c1.895-1.146,0.841-3.577,0.453-5.241
		c-5.214-14.309-11-28.415-15.724-42.891c5.786-1.276,11.407-3.217,17.202-4.437c4.594-1.054,8.366,3.152,12.932,2.681
		c3.781-0.351,7.487-1.239,11.24-1.821c4.539,12.155,8.514,24.533,13.302,36.596c4.844-10.667,8.846-21.686,13.246-32.538
		c4.76,6.018,7.349,13.523,12.525,19.199c6.332-1.645,11.98-5.167,18.062-7.524c4.982-2.163,9.946-4.363,14.938-6.48
		c-6.276-7.829-13.246-15.058-19.68-22.758c-5.454,1.192-10.529,3.993-16.102,4.529c-7.293-2.865-12.368-9.475-19.301-13.015
		c-2.348-1.035-4.927-0.055-7.266,0.407c-12.331,3.291-24.828,5.916-37.132,9.262c-2.976,0.813-6.443,1.599-9.031-0.619
		c-14.734-10.575-29.589-20.992-44.305-31.595c-5.5-3.929-12.608-2.829-18.949-3.18c-5.981-0.361-12.192,0.388-17.979-1.396
		c-3.956-2.865-6.138-7.469-9.207-11.176c-18.025-23.886-36.041-47.79-54.112-71.647c-4.862-6.748-6.471-15.095-9.604-22.675
		c-1.978-5.158-3.808-10.362-5.611-15.576c-0.795-1.876-1.34-4.067-3.004-5.371c-6.276-3.818-14.189-4.215-20.142-8.541
		c-2.487-4.483-3.078-9.715-4.964-14.439c-2.94-7.765-5.722-16.25-12.618-21.464c0.416,10.584,1.858,21.094,2.597,31.669
		c0.924,8.994,0.721,18.034,0.869,27.056c2.856-5.731,4.862-11.823,6.933-17.877c0.397,14.54,1.035,29.071,1.137,43.611
		c0.176,4.751-0.481,9.623,0.619,14.3c3.466,4.261,8.8,6.48,13.034,9.891c0.518,7.681,0.813,15.363,1.155,23.054
		c0.194,5.962,5.297,9.9,8.292,14.596c-2.644,5.075-5.75,9.909-8.144,15.104c-1.46,2.782,0.37,5.713,1.442,8.292
		c3.725,7.589,6.96,15.418,10.695,23.017c3.198-4.631,6.156-9.41,9.281-14.087c2.477,4.659,4.724,9.438,6.766,14.3
		c4.4,0.915,8.809,1.849,13.246,2.644c0.157,4.049,0.12,8.107-0.157,12.155c-2.967,1.285-6.119,2.551-8.236,5.112
		c-2.607,3.013-4.825,6.323-7.349,9.401c-1.747,2.348-4.113,4.908-3.494,8.097c0.777,5.528,2.431,10.889,3.263,16.417
		c-3.725,2.44-7.82,4.437-11.009,7.608c-2.607,3.457-3.494,7.829-5.112,11.786c-8.236-7.58-15.751-15.881-23.941-23.497
		c-1.266,2.459-2.533,4.918-3.818,7.376c-3.392-10.14-5.435-20.66-8.255-30.966c-2.403-8.523-4.002-17.267-6.979-25.614
		c-5.287,9.595-10.39,19.292-15.788,28.831c-7.145-4.067-13.875-8.828-21.057-12.83c3.078,7.118,6.933,13.865,10.196,20.909
		c-5.555,3.531-11.471,7.561-18.432,6.729c-13.57-0.203-27.121-1.183-40.691-0.961c-3.235-0.203-7.339,0.481-9.484-2.551
		c-10.14-13.052-20.049-26.307-30.467-39.147c-6.323,0.481-12.562,1.775-18.885,2.255c-3.392,0.287-6.018-2.274-8.587-4.076
		c-8.449-6.6-17.397-12.516-25.781-19.19c1.812-1.904,3.596-3.827,5.297-5.814c12.386-14.734,24.912-29.349,37.326-44.055
		c3.281-3.466,5.666-8.181,10.076-10.325c6.905-0.832,13.838,0.804,20.78,0.666c10.002-16.029,20.391-31.817,30.393-47.854
		c5.944,1.063,11.823,2.477,17.738,3.688C854.844,648.894,872.915,620.719,891.421,592.84z"/>
	<path fill="#FFFFFF" stroke="#FFFFFF" d="M901.062,607.186c6.896,5.213,9.678,13.699,12.618,21.464
		c1.886,4.724,2.477,9.955,4.964,14.439c5.953,4.326,13.865,4.724,20.142,8.541c1.664,1.303,2.209,3.494,3.004,5.371
		c1.803,5.213,3.633,10.418,5.611,15.576c3.134,7.58,4.742,15.927,9.604,22.675c18.071,23.858,36.087,47.762,54.112,71.647
		c3.069,3.707,5.25,8.31,9.207,11.176c5.786,1.784,11.998,1.035,17.979,1.396c6.341,0.351,13.45-0.749,18.949,3.18
		c14.716,10.602,29.57,21.02,44.305,31.595c2.588,2.218,6.055,1.433,9.031,0.619c12.303-3.346,24.801-5.971,37.132-9.262
		c2.339-0.462,4.918-1.442,7.266-0.407c6.933,3.54,12.007,10.149,19.301,13.015c5.574-0.536,10.649-3.337,16.102-4.529
		c6.433,7.7,13.403,14.928,19.68,22.758c-4.991,2.117-9.955,4.317-14.938,6.48c-6.082,2.357-11.73,5.879-18.062,7.524
		c-5.176-5.676-7.765-13.181-12.525-19.199c-4.4,10.852-8.402,21.87-13.246,32.538c-4.788-12.063-8.763-24.44-13.302-36.596
		c-3.753,0.582-7.459,1.47-11.24,1.821c-4.566,0.471-8.338-3.734-12.932-2.681c-5.796,1.22-11.416,3.161-17.202,4.437
		c4.724,14.476,10.51,28.581,15.724,42.891c0.388,1.664,1.442,4.095-0.453,5.241c-4.169,3.346-8.939,5.861-13.292,8.957
		c-8.31,5.472-16.463,11.157-24.875,16.472c-0.952-7.672-1.571-15.381-2.44-23.054c-1.257-10.418,0.508-20.835,1.673-31.17
		c1.137-10.122,3.309-20.096,4.169-30.236c-5.602,3.975-10.039,9.299-15.548,13.394c-4.317-7.94-7.497-16.426-11.943-24.292
		c-0.379,16.065,0.028,32.131-0.157,48.196c-0.194,6.97-5.056,12.46-7.016,18.903c-0.841,2.32,0.823,4.483,1.923,6.406
		c5.796,8.772,11.869,17.387,17.202,26.465c-10.001,8.606-21.63,14.975-32.778,21.917c-7.034,4.058-13.856,8.495-20.955,12.423
		c-3.448,2.052-7.099-0.712-10.316-1.895c-6.729-2.699-13.098-6.461-20.142-8.236c-2.496,1.359-4.224,3.707-6.055,5.805
		c-2.662,3.245-5.676,6.175-8.772,8.994c-0.878-4.557-1.682-9.123-2.255-13.718c-0.961-5.038-0.268-11.268-4.65-14.855
		c-5.731-4.816-11.24-9.909-17.193-14.457c-1.904,6.092-3.309,12.34-5.463,18.358c-4.566-13.588-7.432-27.675-11.832-41.319
		c-0.213,15.834,1.368,31.669,0.518,47.503c-1.165-3.152-2.255-6.323-3.318-9.493c-1.276,4.335-2.505,8.689-3.725,13.043
		c-2.108-14.522-1.599-29.284-3.217-43.861c-3.032,3.476-5.962,7.034-8.892,10.593c-1.451-9.909-0.499-19.975-1.923-29.875
		c-5.315,11.12-9.299,22.813-14.291,34.072c-1.165,3.097-3.429,6.877-0.971,9.946c3.956,5.879,8.329,11.462,12.34,17.304
		c9.225,13.283,19.116,26.113,27.879,39.711c-15.483-4.28-30.698-9.447-46.015-14.245c-4.834-18.94-8.597-38.139-13.634-57.024
		c-2.376,7.709-4.391,15.539-6.877,23.211c-1.183,3.827-2.57,7.996-1.026,11.943c4.215,11.508,9.373,22.693,12.923,34.442
		c-1.59-1.895-3.152-3.799-4.566-5.805c-9.299-13.792-18.663-27.528-28.027-41.264c-4.529-6.369-8.439-13.172-13.449-19.181
		c-0.878,15.714,0.462,31.484-0.721,47.189c-2.098-0.952-4.197-1.876-6.341-2.662l-0.25-0.527
		c-3.559-8.255-8.643-15.714-12.932-23.581c-6.859-12.257-14.365-24.172-20.743-36.688c5.5,2.838,10.639,6.323,16.093,9.253
		c-0.998-7.404-2.57-14.707-4.03-22.028c-0.786-4.15-3.189-7.681-5.74-10.935c-7.034-9.031-13.181-18.746-20.623-27.444
		c-1.83,5.703-3.3,11.518-5.269,17.184c-3.309-7.94-5.287-16.334-8.097-24.449c-3.087-0.351-6.175-0.712-9.253-1.072
		c-0.305,8.384-3.226,17.443,0.934,25.328c4.714,9.863,9.114,19.883,13.681,29.829c2.681,6.184,6.341,12.035,7.441,18.802
		c-15.908-10.538-31.428-21.704-46.69-33.175c-3.272-2.801-7.21-5.084-9.623-8.698c-1.867-8.597-1.886-17.471-2.625-26.206
		c-0.98-17.507-1.95-35.024-2.366-52.55c0.102-1.414,0.25-2.81,0.453-4.187c1.544,0.767,3.106,1.553,4.631,2.422
		c0.684,0.601,1.377,1.211,2.089,1.821c8.384,6.674,17.332,12.59,25.781,19.19c2.57,1.802,5.195,4.363,8.587,4.076
		c6.323-0.481,12.562-1.775,18.885-2.255c10.418,12.839,20.327,26.095,30.467,39.147c2.145,3.032,6.249,2.348,9.484,2.551
		c13.57-0.222,27.121,0.758,40.691,0.961c6.96,0.832,12.876-3.198,18.432-6.729c-3.263-7.044-7.118-13.792-10.196-20.909
		c7.182,4.003,13.912,8.763,21.057,12.83c5.398-9.539,10.501-19.236,15.788-28.831c2.976,8.347,4.576,17.091,6.979,25.614
		c2.819,10.307,4.862,20.826,8.255,30.966c1.285-2.459,2.551-4.918,3.818-7.376c8.19,7.617,15.705,15.917,23.941,23.497
		c1.618-3.956,2.505-8.329,5.112-11.786c3.189-3.171,7.284-5.167,11.009-7.608c-0.832-5.528-2.487-10.889-3.263-16.417
		c-0.619-3.189,1.747-5.75,3.494-8.097c2.523-3.078,4.742-6.387,7.349-9.401c2.117-2.56,5.269-3.827,8.236-5.112
		c0.277-4.049,0.314-8.107,0.157-12.155c-4.437-0.795-8.846-1.729-13.246-2.644c-2.043-4.862-4.289-9.641-6.766-14.3
		c-3.124,4.677-6.082,9.456-9.281,14.087c-3.734-7.598-6.97-15.428-10.695-23.017c-1.072-2.579-2.903-5.509-1.442-8.292
		c2.394-5.195,5.5-10.029,8.144-15.104c-2.995-4.696-8.097-8.634-8.292-14.596c-0.342-7.691-0.638-15.372-1.155-23.054
		c-4.234-3.411-9.567-5.629-13.034-9.891c-1.1-4.677-0.444-9.549-0.619-14.3c-0.102-14.54-0.74-29.071-1.137-43.611
		c-2.071,6.055-4.076,12.146-6.933,17.877c-0.148-9.022,0.055-18.062-0.869-27.056C902.92,628.28,901.478,617.77,901.062,607.186z"
		/>
	<path fill="#FFCC33" stroke="#FFCC33" d="M561.849,625.498c13.043-0.582,26.113-0.971,39.175-1.303
		c1.886-0.333,2.718,1.59,3.827,2.718c3.577,4.492,7.497,8.708,10.871,13.366l-1.017,0.351c-7.201,2.32-14.17,5.417-21.612,6.97
		c-1.054-4.206-1.035-8.569-1.756-12.802c-1.183-1.35-2.866-2.098-4.557-2.542C578.432,630.166,570.029,628.188,561.849,625.498z"/>
	<path fill="#A58978" stroke="#A58978" d="M625.999,626.275c4.03-0.102,8.051-0.601,12.054-1.202c-1.22,1.035-2.45,2.089-3.873,2.81
		C631.388,627.735,628.68,626.986,625.999,626.275z"/>
	<path fill="#CCCCCC" stroke="#CCCCCC" d="M540.801,631.432c13.024-2.302,26.529-1.239,39.359,1.701
		c6.323,1.128,7.885,8.726,7.866,14.133c-4.64,1.054-9.281,2.089-13.838,3.457c-0.767,0.222-2.302,0.656-3.069,0.878
		c-0.915-3.827-1.525-7.728-2.635-11.499c-0.314-1.692-2.145-2.191-3.476-2.819C557.199,634.372,548.88,633.3,540.801,631.432z"/>
	<path fill="#999933" stroke="#999933" d="M633.228,647.082c7.293-3.697,12.146-11.018,19.55-14.697
		c1.128,11.721,2.283,23.497,1.904,35.292c-0.222,2.866-0.194,6.323-2.755,8.227c-10.621,8.421-22,16.102-31.105,26.271
		c-2.468,2.718-4.252,5.953-5.907,9.216c-4.446-4.15-6.72-9.918-8.911-15.446c-4.668-12.155-8.07-24.801-10.399-37.603
		c-0.776-3.586-0.499-7.534-2.514-10.741c7.441-1.553,14.411-4.649,21.612-6.97C620.324,643.911,626.637,646.842,633.228,647.082z"
		/>
	<path fill="#999999" stroke="#999999" d="M574.189,650.724c4.557-1.368,9.197-2.403,13.838-3.457
		c0.74,9.114,3.661,17.914,5.648,26.816c4.659,16.833,8.754,34.322,18.265,49.204c-11.98-8.476-23.276-18.672-30.014-31.918
		c-6.489-12.165-9.299-25.928-10.381-39.572c1.072-0.148,2.145-0.268,3.235-0.379C574.633,651.242,574.337,650.9,574.189,650.724z"
		/>
	<path fill="#006A25" stroke="#006A25" d="M522.156,653.349c4.871-2.126,9.844-4.409,15.178-5.038
		c4.807-0.018,9.493,1.645,13.828,3.651c3.753,1.655,6.064,5.26,7.792,8.828c2.579,5.407,4.492,11.111,6.147,16.87
		c2.819,9.891,2.653,20.558,6.979,30.023c1.96,4.557,6.23,7.339,9.678,10.676c3.642,3.448,6.887,7.284,10.455,10.815
		c4.973,5.047,11.231,8.513,16.907,12.692c2.792,1.729,5.833,4.206,9.336,3.531c5.75-10.418,9.216-21.981,14.3-32.741
		c4.797,6.406,9.086,13.191,13.366,19.957c3.808,5.925,6.434,12.562,10.76,18.164c9.438,27.74,15.465,56.497,21.833,85.051
		c-8.828-5.149-10.944-16.583-19.467-22.046c-3.762-2.56-8.504-2.45-12.849-2.292c-34.525,1.608-68.976,4.945-103.557,5.075
		c-6.295,0-12.701,0.12-18.765-1.83c0.869-10.658,5.454-20.456,8.772-30.476c2.163-6.313-0.499-12.858-2.838-18.709
		c-2.976-7.543-8.162-13.875-13.292-20.04c-7.404-8.902-15.16-17.517-23.007-26.021c-2.366-2.209-0.971-5.602-0.684-8.328
		c2.866-14.762,5.352-29.903,11.98-43.538C508.319,660.578,515.464,656.621,522.156,653.349z"/>
	<path fill="#CCCCCC" stroke="#CCCCCC" d="M472.074,688.346c5.537-8.717,12.701-16.232,20.022-23.451
		c-6.36,14.984-9.576,31.022-13.403,46.773c-2.866-3.355-5.703-6.729-8.818-9.844c-0.666-0.952-2.071-1.645-1.913-2.94
		C468.155,695.029,470.152,691.572,472.074,688.346z"/>
	<path fill="#006A25" stroke="#006A25" d="M338.587,681.274c6.212-0.425,12.442-0.971,18.672-0.712
		c-5.86,8.365-13.745,15.529-17.655,25.124c-1.534,4.003-0.324,8.282,0.739,12.239c-8.319,6.979-17.11,13.385-25.614,20.142
		c-9.641,7.321-19.005,15.012-28.831,22.083c1.303-15.465,3.217-30.874,4.576-46.338c0.277-2.597,0.268-5.833,3.078-7.053
		c12.849-7.802,25.762-15.502,38.546-23.405C334.039,682.115,336.267,681.385,338.587,681.274z"/>
	<path fill="#CCCCCC" stroke="#CCCCCC" d="M408.561,684.195c6.508-1.091,13.135-1.47,19.707-2.163
		c5.722-0.425,12.192-0.083,16.583,4.104c22.767,21.251,46.024,42.123,66.6,65.556c5.518,6.609,11.397,13.228,14.753,21.26
		c1.424,3.087,0.324,6.452-0.555,9.521c-2.921,9.678-7.293,18.848-12.257,27.629c-0.555,1.054-1.35,2.209-0.841,3.476
		c3.466,12.497,6.96,25.023,9.502,37.76c0.813,4.881,2.117,9.881,1.35,14.845c-9.595,11.536-18.025,24.237-23.802,38.148
		c-2.45,6.415-4.853,13.496-3.06,20.401c0.638,2.237,2.403,5.897,5.287,4.243c7.487-4.344,11.786-12.414,18.644-17.544
		c1.063-0.61,2.292-0.795,3.429-1.211c0.416,17.128,9.253,32.815,19.837,45.793c4.964,6.526,10.519,12.904,13.32,20.734
		c1.516,3.836,0.49,7.959-0.25,11.85c-2.163,11.878-4.363,23.895-9.151,35.052c-1.83,4.354-4.576,8.356-8.421,11.185
		c8.754,5.759,17.119,12.146,26.344,17.156c-4.039,11.638-4.945,24.052-6.535,36.198c-8.467-0.416-16.925-0.943-25.383-1.285
		c0.841-9.049,0.693-18.598-3.245-26.973c-3.235-6.942-10.492-11.675-18.099-12.091c-5.047-0.342-10.538,0.906-13.976,4.871
		c-9.068-12.553-20.733-23.312-34.229-30.948c-10.556-5.953-22.73-9.567-34.932-8.578c0.277-22.323-8.92-44-22.786-61.193
		c-0.786-0.971-1.488-2.061-1.424-3.337c-0.619-11.194-2.292-22.555,0.037-33.675c3.392-16.805,12.913-31.53,23.183-44.943
		c6.073-8.06,13.015-15.409,19.587-23.063c-9.373,0.324-17.757,7.044-20.17,16.093c-13.45-11.028-27.047-22.166-37.797-35.958
		c-7.737-10.085-14.928-22.397-13.015-35.597c2.311-13.579,4.918-27.121,6.748-40.774c-10.353,13.302-15.215,30.532-14.281,47.29
		c0.601,11.499,3.993,22.693,8.948,33.037c-1.294,1.497-2.533,3.041-3.79,4.576c-7.33,5.102-15.816,8.088-24.2,10.963
		c-10.843,3.559-21.963,6.221-33.157,8.421c-8.43,1.516-16.842,3.355-25.429,3.623c-0.434-0.111-1.313-0.323-1.747-0.434
		c-0.619-9.493-1.128-18.987-1.414-28.489c-7.82-5.334-15.465-12.46-17.692-22.009c-1.747-7.561,2.218-14.975,7.469-20.151
		c14.032-14.374,29.367-27.389,44.628-40.413c19.828-16.648,39.96-32.963,60.99-48.067
		C391.784,693.67,399.539,687.643,408.561,684.195z"/>
	<path fill="#999933" stroke="#999933" d="M642.435,695.121c2.57-3.189,6.785-0.49,9.521,1.045
		c10.87,7.265,17.378,20.022,18.755,32.843c2.523,19.504,6.036,38.851,9.04,58.281c5.398-0.259,10.787-0.758,16.186-1.202
		c0.129,17.803,0.823,35.727,4.271,53.234c1.035,5.685,3.189,11.083,5.666,16.287c-11.333-2.394-20.733-10.445-27.158-19.781
		c-6.369-28.554-12.396-57.311-21.833-85.051c-3.161-10.27-7.007-20.373-12.026-29.885c-2.523-4.881-5.833-9.41-10.307-12.673
		C637.572,704.088,639.273,699.142,642.435,695.121z"/>
	<path fill="#C2DCF5" stroke="#C2DCF5" d="M179.005,719.025c6.822,6.424,13.043,13.449,19.754,19.985
		c9.604,9.475,18.728,19.43,28.184,29.053c15.483-7.663,30.338-16.629,46.449-22.961c-0.074,2.098-0.148,4.215-0.24,6.323
		c-13.579,6.156-26.936,12.765-40.284,19.393c-3.494,1.664-6.84,3.855-10.667,4.677c-2.172-1.035-3.827-2.847-5.509-4.502
		c-12.664-13.145-25.975-25.651-38.518-38.906C178.561,727.733,178.792,723.379,179.005,719.025z"/>
	<path fill="#FFFFFF" stroke="#FFFFFF" d="M178.478,755.399c-0.102-7.774-0.887-15.548-0.305-23.312
		c12.544,13.255,25.854,25.762,38.518,38.906c1.682,1.655,3.337,3.466,5.509,4.502c3.827-0.823,7.173-3.013,10.667-4.677
		c13.348-6.628,26.705-13.237,40.284-19.393c-1.183,17.711-3.503,35.847-11.462,51.94c6.101,8.486,12.174,16.99,17.979,25.679
		c0.887,1.128,0.629,2.625,0.684,3.975c-0.434,14.513-0.776,29.034-1.22,43.556c0.074,1.276-0.471,3.023,0.915,3.845
		c25.993,20.318,52.014,40.598,78.035,60.879c7.543-1.812,15.095-3.587,22.656-5.324c-1.95,5.648-4.613,11.222-4.871,17.295
		c5.999-0.287,12.017-0.314,18.007,0.111c3.744,3.355,6.267,7.968,9.142,12.091c10.27,16.398,17.683,35.246,17.849,54.806
		c-6.951,1.673-12.969,6.091-17.23,11.758c-8.735-0.61-17.498-0.231-26.243-0.379c10.02-7.349,20.438-14.133,30.504-21.417
		c-11.305-9.595-23.128-18.552-34.507-28.045c-2.218-1.775-4.511-3.439-6.813-5.084c-6.6,16.334-11.897,33.175-18.709,49.417
		c-2.32-7.728-3.596-15.705-5.445-23.544c-3.263-14.928-6.572-29.839-9.706-44.785c-0.508-2.995-2.339-5.518-4.788-7.247
		c-7.386-5.546-14.67-11.222-22.046-16.777c-5.186-3.808-7.45-10.039-10.556-15.409c-3.808-6.674-7.386-13.477-11.176-20.151
		c-2.524-4.687-7.45-7.099-12.008-9.345c9.364,18.201,19.624,35.93,29.293,53.974c4.622,8.994,10.223,17.498,14.152,26.843
		c-6.045-5.842-10.963-12.701-16.463-19.023c-6.286-7.284-12.026-15.049-18.783-21.907c2.551,5.629,5.685,10.972,8.698,16.371
		c16.158,29.08,32.38,58.133,48.538,87.223c3.494,6.517,7.534,12.765,10.344,19.633c-5.204-5.195-9.216-11.388-13.755-17.128
		c-32.196-42.059-64.271-84.21-96.504-126.24c-3.744-5.093-4.825-11.453-6.683-17.35c-2.893-9.419-5.546-18.922-8.735-28.239
		c0.434,22.573,2.015,45.127,2.801,67.7c1.137,24.043,2.348,48.085,3.263,72.137c-3.642-19.596-6.082-39.406-9.197-59.095
		c-4.65-31.077-9.345-62.154-13.949-93.241c-0.878-5.26-0.758-10.991-3.762-15.612c-2.302-3.448-5.139-6.489-7.802-9.65
		c-3.892,7.913-6.101,16.481-9.521,24.588c-2.81-21.233-3.263-42.687-4.659-64.04C179.31,775.929,178.626,765.669,178.478,755.399z"
		/>
	<path fill="#C2DCF5" stroke="#C2DCF5" d="M685.944,749.289c3.79,1.387,7.515,3.189,10.427,6.064
		c6.905,6.674,12.322,14.781,16.463,23.423c-1.525-0.869-3.087-1.655-4.631-2.422c-0.203,1.377-0.351,2.773-0.453,4.187
		c-0.379-1.71,0.157-3.827-1.091-5.186c-5.676-5.592-12.682-9.549-18.866-14.503C687.211,756.989,686.573,753.134,685.944,749.289z"
		/>
	<path fill="#FFFFFF" stroke="#FFFFFF" d="M687.793,760.853c6.184,4.955,13.191,8.911,18.866,14.503
		c-5.491,1.849-11.055,3.494-16.602,5.167C689.438,773.951,688.708,767.388,687.793,760.853z"/>
	<path fill="#C2DCF5" stroke="#C2DCF5" d="M193.6,825.66c2.662,3.161,5.5,6.203,7.802,9.65c3.004,4.622,2.884,10.353,3.762,15.612
		c4.603,31.086,9.299,62.164,13.949,93.241c3.115,19.689,5.555,39.498,9.197,59.095c-0.915-24.052-2.126-48.095-3.263-72.137
		c-0.786-22.573-2.366-45.127-2.801-67.7c3.189,9.318,5.842,18.82,8.735,28.239c1.858,5.897,2.939,12.257,6.683,17.35
		c32.233,42.031,64.308,84.182,96.504,126.24c4.539,5.74,8.55,11.933,13.755,17.128c-2.81-6.868-6.85-13.117-10.344-19.633
		c-16.158-29.09-32.38-58.143-48.538-87.223c-3.013-5.398-6.147-10.741-8.698-16.371c6.757,6.859,12.497,14.623,18.783,21.907
		c5.5,6.323,10.418,13.181,16.463,19.023c-3.929-9.345-9.53-17.849-14.152-26.843c-9.669-18.044-19.929-35.773-29.293-53.974
		c4.557,2.246,9.484,4.659,12.008,9.345c3.79,6.674,7.367,13.477,11.176,20.151c3.106,5.371,5.371,11.601,10.556,15.409
		c7.376,5.555,14.66,11.231,22.046,16.777c2.45,1.729,4.28,4.252,4.788,7.247c3.134,14.947,6.443,29.857,9.706,44.785
		c1.849,7.839,3.124,15.816,5.445,23.544c6.813-16.241,12.109-33.083,18.709-49.417c2.302,1.645,4.594,3.309,6.813,5.084
		c11.379,9.493,23.202,18.45,34.507,28.045c-10.066,7.284-20.484,14.069-30.504,21.417c8.744,0.148,17.507-0.231,26.243,0.379
		c-5.121,7.478-7.293,16.676-6.868,25.67c0.388,7.912,1.054,15.862,0.074,23.765c-52.051-2.486-104.111-5.176-156.19-7.053
		c-7.746-12.766-13.477-26.696-18.931-40.57c-14.697-38.842-23.571-79.615-30.042-120.546c-3.152-20.928-5.907-41.957-7.598-63.051
		C187.5,842.141,189.709,833.572,193.6,825.66z"/>
	<path fill="#999999" stroke="#999999" d="M526.039,825.946c15.492-0.176,31.003,0.259,46.496-0.231
		c-3.67,16.047-6.018,32.454-5.676,48.954c0.379,36.013,10.076,71.731,26.991,103.464c1.497,2.819,2.681,5.796,3.91,8.744
		c-10.806-5.232-23.137-8.282-32.02-16.796c-3.494-4.733-5.814-10.214-8.791-15.271c-5.583-10.196-11.111-20.428-16.195-30.883
		c-0.998-2.191-2.163-4.363-2.542-6.748c-0.323-8.606,2.302-17.665-0.786-25.965c-1.229-2.949-4.363-0.555-6.008,0.684
		c-9.392,7.82-17.341,17.175-25.494,26.233c1.266-8.633,2.181-17.84,6.97-25.346c5.426-5.823,10.085-12.276,14.281-19.033
		c1.155-2.329,3.901-2.847,5.694-4.492c1.239-2.385,2.81-5.102,1.987-7.866C531.936,849.573,528.858,837.797,526.039,825.946z"/>
	<path fill="#CCCCCC" stroke="#CCCCCC" d="M572.534,825.715c13.514-0.351,27.028-0.139,40.552-0.129
		c9.244,0.176,18.497-0.083,27.731,0.194c5.768,1.461,10.602,5.287,15.668,8.292c9.253,6.045,18.367,12.331,27.185,19.014
		c5.666,4.613,11.887,8.467,17.886,12.627c24.089,16.454,48.289,32.806,71.315,50.729c5.241,4.261,10.639,8.403,15.243,13.394
		c1.137,1.405,2.681,2.884,2.542,4.881c-0.037,4.317-0.629,8.615-1.211,12.895c22.906,11.776,45.83,23.599,67.959,36.799
		c5.297,3.457,11.286,6.434,14.818,11.915c5.907,8.892,9.798,18.922,13.57,28.868c-12.035-0.721-24.117-1.516-36.152-0.545
		c-6.665,0.453-13.32,2.81-18.45,7.136c-5.583,5.454-7.755,13.283-9.733,20.604c-2.403,9.576-3.947,19.347-5.287,29.127
		c-4.871,0.074-10.251,1.165-14.817-0.444c-6.526-10.214-12.645-20.9-21.27-29.543c-2.44-2.329-5.26-4.945-8.855-4.871
		c-19.92,0.12-39.886-0.518-59.649-3.097c-11.24-1.581-22.545-3.559-33.129-7.783c-5.676-2.412-11.61-5.537-14.79-11.074
		c-2.819-4.964-1.239-10.898,0.342-15.992c4.437-13.024,15.095-22.712,26.326-30.033c10.103-6.739,21.38-11.342,32.436-16.213
		c-10.695,0.129-21.233,2.671-31.308,6.11c-6.073,2.274-12.22,4.696-17.443,8.615c-10.981,8.402-23.507,15.086-37.067,18.117
		c-11.074,2.422-23.155,1.627-33.175-3.984c-2.107-1.285-4.613-2.348-6.008-4.446c-1.229-2.949-2.413-5.925-3.91-8.744
		c-16.916-31.734-26.612-67.451-26.991-103.464C566.517,858.17,568.864,841.762,572.534,825.715z"/>
	<path fill="#C2DCF5" stroke="#C2DCF5" d="M746.999,827.213c3.078,0.361,6.166,0.721,9.253,1.072
		c2.81,8.116,4.788,16.509,8.097,24.449c1.969-5.666,3.439-11.481,5.269-17.184c7.441,8.698,13.588,18.413,20.623,27.444
		c2.551,3.254,4.955,6.785,5.74,10.935c1.461,7.321,3.032,14.624,4.03,22.028c-5.454-2.93-10.593-6.415-16.093-9.253
		c6.378,12.516,13.884,24.431,20.743,36.688c4.289,7.866,9.373,15.326,12.932,23.581c-6.461-2.034-12.608-4.945-19.06-6.988
		c2.348-4.668,4.308-9.539,5.389-14.67c-11.555-8.107-23.627-15.733-34.867-24.144c-1.1-6.766-4.76-12.618-7.441-18.802
		c-4.566-9.946-8.966-19.966-13.681-29.829C743.773,844.656,746.694,835.597,746.999,827.213z"/>
	<path fill="#999999" stroke="#999999" d="M374.424,835.643c1.932-0.943,3.845-1.904,5.75-2.912
		c9.271,6.203,15.834,16.343,16.971,27.518c1.886,17.591-4.613,34.812-12.765,50.082c-1.405,2.181-2.32,5.287-5.186,5.916
		c-6.803,2.172-13.625,4.271-20.419,6.461c-1.405,0.351-3.143,1.183-4.298-0.148c-17.175-13.949-34.368-27.879-51.542-41.828
		c-3.679-3.161-7.737-5.879-11.176-9.29c-1.516-3.892-2.006-8.097-2.939-12.146c0.934-0.25,1.867-0.471,2.819-0.647
		c8.587-0.268,16.999-2.107,25.429-3.623c11.194-2.2,22.314-4.862,33.157-8.421C358.609,843.731,367.094,840.745,374.424,835.643z"
		/>
	<path fill="#FFFFFF" stroke="#FFFFFF" d="M569.511,984.327c7.857,4.918,16.666,7.996,25.291,11.259
		c7.164,2.496,14.328,5.038,21.575,7.275c3.938,11.249,7.719,22.573,10.76,34.109c0.656,3.355,2.098,6.998,0.73,10.362
		c-1.83,3.374-6.055,3.882-9.392,4.807c-2.819,0.85-6.443,0.832-7.996,3.771c-10.787-1.128-21.695-1.71-32.279-4.187
		c1.507-2.45,3.078-4.862,4.668-7.266c-10.88-1.729-21.307-5.361-31.604-9.133c4.132-4.465,5.805-10.473,7.876-16.029
		C563.022,1007.769,566.147,996.011,569.511,984.327z"/>
	<path fill="#FFFFFF" stroke="#FFFFFF" d="M888.796,1005.208c7.413,1.479,13.44,6.267,19.596,10.344
		c-0.878,1.266-2.024,2.339-3.3,3.208c-3.993,2.764-7.848,5.731-11.379,9.077C894.009,1020.007,891.856,1012.335,888.796,1005.208z"
		/>
	<path fill="#044476" stroke="#044476" d="M412.305,1032.348c8.597-5.001,18.691-8.079,28.683-6.674
		c7.672,1.035,14.346,5.389,20.419,9.928c9.946,7.7,18.755,16.814,26.548,26.668c-4.677,4.224-9.641,8.098-14.513,12.091
		c-10.991-13.283-23.1-26.104-38.13-34.839C428.352,1035.306,420.393,1033.013,412.305,1032.348z"/>
	<path fill="#044476" stroke="#044476" d="M849.659,1031.728c10.002-1.895,20.354-0.869,30.208,1.377
		c3.744,0.573,6.036,3.808,8.301,6.507c4.696,5.907,9.678,11.841,12.414,18.977c0.971,2.366,1.035,5.084-0.194,7.386
		c-2.061-0.259-3.402-1.997-4.853-3.263c-4.908-4.89-10.676-8.985-17.11-11.592c-8.717-3.476-18.94-2.93-27.158,1.627
		c-10.584,5.639-18.053,15.428-24.366,25.355c-1.729-10.501-2.505-21.926,2.311-31.761
		C832.964,1038.356,841.191,1033.337,849.659,1031.728z"/>
	<path fill="#006A25" stroke="#006A25" d="M636.103,1033.568c8.634-1.109,16.602,2.986,24.098,6.683
		c5.805,3.069,11.647,6.101,17.369,9.336c0.98,0.795,2.856,1.433,2.45,3.032c-0.712,12.026-1.1,24.07-1.433,36.115
		c-14.781,0.388-29.561,0.989-44.342,1.35c-3.115-11.139-6.96-22.212-8.19-33.758c4.197-2.912,9.586-6.674,9.17-12.433
		C635.206,1040.427,635.446,1036.96,636.103,1033.568z"/>
	<path fill="#CCCCCC" stroke="#CCCCCC" d="M896.718,1034.566c12.368,0.12,24.893,1.266,36.679,5.232
		c7.321,2.561,14.762,6.387,19.06,13.117c4.372,7.755,9.983,16.629,7.386,25.882c-9.308,0.397-18.617,0.813-27.916,1.239
		c-1.211-0.203-3.235,0.592-3.734-0.934c-5.981-12.581-12.627-25.032-21.723-35.653
		C903.632,1040.057,900.267,1037.173,896.718,1034.566z"/>
	<path fill="#737373" stroke="#737373" d="M408.423,1044.438c10.103-1.729,20.512,0.416,29.977,4.021
		c4.252,1.812,9.003,3.642,11.527,7.802c2.431,3.864,5.103,7.617,7.099,11.749c-2.884-2.431-5.528-5.26-8.902-7.016
		c-3.753-1.608-7.829-2.172-11.739-3.244c-6.766-1.821-13.939-3.18-20.9-1.756c-5.186,1.664-8.966,5.842-13.08,9.188
		c0.73,4.326,1.303,8.68,1.729,13.052c-2.644-7.136-3.882-14.854-3.577-22.444C400.76,1050.983,403.098,1045.261,408.423,1044.438z"
		/>
	<path fill="#C2DCF5" stroke="#C2DCF5" d="M569.142,1073.112c1.682-7.617,5.269-14.633,9.059-21.39
		c10.584,2.477,21.491,3.06,32.279,4.187c-0.074,11.703,4.964,22.619,9.253,33.277c-11.416-1.396-22.924-0.379-34.368-0.092
		c-5.13-0.074-10.251-0.277-15.372-0.471C567.931,1083.705,567.922,1078.233,569.142,1073.112z"/>
	<path fill="#999933" stroke="#999933" d="M678.586,1088.734c0.333-12.044,0.721-24.089,1.433-36.115
		c5.62,3.485,10.113,8.43,14.355,13.45c6.332,7.626,12.165,15.668,17.6,23.959C700.845,1089.621,689.716,1089.122,678.586,1088.734z
		"/>
	<path fill="#044476" stroke="#044476" d="M402.405,1065.181c4.113-3.346,7.894-7.524,13.08-9.188
		c6.96-1.423,14.134-0.065,20.9,1.756c3.91,1.072,7.986,1.636,11.739,3.244c3.374,1.756,6.018,4.585,8.902,7.016
		c3.975,4.252,6.785,9.456,9.734,14.448c-1.747,1.83-3.374,3.808-5.38,5.38c-1.876,0.758-3.79,1.451-5.703,2.135
		c-7.284,3.18-15.234,1.091-22.841,0.98c-8.809-0.638-17.646-0.897-26.437-1.83c-0.712-3.642-1.747-7.219-2.265-10.889
		C403.708,1073.861,403.135,1069.507,402.405,1065.181z"/>
	<path fill="#737373" stroke="#737373" d="M902.403,1061.419c1.109-2.172,2.875-3.901,4.613-5.574
		c4.114,5.287,7.413,11.148,11.028,16.786c2.08,3.124,2.255,6.97,2.838,10.584c-1.331,1.045-2.625,2.135-3.975,3.161
		c-1.812,1.091-3.587,2.237-5.352,3.383c-1.155-0.915-2.283-1.821-3.392-2.727c-1.747-1.433-3.476-2.856-5.093-4.409
		c-2.468-2.376-4.788-5.019-7.903-6.563c-4.021-2.006-8.301-3.402-12.396-5.241c-3.697-1.664-7.607-3.208-11.739-2.949
		c-6.508,0.213-13.006,0.776-19.513,0.85c-2.2,0.268-5.029-0.194-6.526,1.802c-2.69,3.365-4.779,7.145-7.09,10.76
		c-1.479-6.785,0.37-14.845,6.267-19.014c5.213-3.716,11.989-3.762,18.108-3.06c17.711,2.2,34.59,9.484,49.075,19.8
		c-0.564,1.266-1.146,2.514-1.729,3.771c2.413-0.647,4.844-1.497,7.136-2.505c-2.921-4.409-5.195-9.354-9.105-13.015
		C905.841,1065.366,903.688,1063.73,902.403,1061.419z"/>
	<path fill="#FFFFFF" stroke="#FFFFFF" d="M731.525,1059.154c10.223,1.987,20.447,4.021,30.726,5.731
		c4.16,0.721,8.717,0.656,12.211,3.392c7.386,5.14,14.06,11.305,20.105,17.96c-7.302,1.183-14.734,1.442-21.944,3.226
		c-1.414,0.167-2.828,0.203-4.224,0.305c-2.413-5.62-3.91-11.628-6.822-17.017c-4.825,0.388-9.401,2.533-14.3,2.237
		c-5.629-0.139-10.981-2.182-15.779-5.01C731.534,1066.364,731.506,1062.759,731.525,1059.154z"/>
	<path fill="#F8F400" stroke="#F8F400" d="M1170.468,1062.26c17.739-1.387,35.949-1.534,53.207,3.346
		c10.149,2.958,20.086,8.236,26.464,16.897c5.241,6.933,7.654,15.603,8.144,24.191c1.553,23.719,1.553,47.743-2.718,71.204
		c-19.985-1.063-40.053-1.063-60.01,0.536c-11.379,0.934-22.758,2.422-33.795,5.398c-18.875,5.537-38.333,8.763-57.801,11.388
		c-41.652,5.324-83.988,6.757-125.741,1.738c-29.238-3.633-58.392-10.621-84.81-23.95c-11.018-4.834-22.259-9.17-33.49-13.468
		c0.703-1.609,1.424-3.208,2.126-4.797c-8.726-4.354-18.709-4.077-28.193-4.696c-6.859-1.248-13.403-3.827-20.188-5.389
		c-22.61-5.796-46.172-9.946-69.54-7.08c-4.409,0.379-8.624,1.923-13.015,2.255c-20.78-2.551-41.698-3.781-62.542-5.666
		c-27.38-2.209-54.796-4.002-82.231-5.167c-17.267-0.943-34.59-0.666-51.838-2.034c-47.263-3.513-94.294-9.743-141.613-12.497
		c-20.872-1.396-41.809-1.664-62.709-0.915c-21.686,1.174-43.491,3.605-64.289,10.14c-14.355,4.576-28.249,10.565-41.541,17.646
		c-2.801,1.488-5.408,3.281-8.07,5.001c-6.119,2.662-12.867,3.522-19.217,5.528c-11.924,3.245-23.738,6.84-35.486,10.658
		c-12.987,3.429-26.344,5.177-39.655,6.794c-11.471,1.202-22.998,2.477-34.543,1.913c-8.513-10.621-14.984-22.739-20.308-35.228
		c-4.557-11.074-8.236-22.758-8.587-34.811c-0.166-7.802,1.793-16.398,8.051-21.593c6.434-5.398,15.298-6.369,23.396-5.916
		c23.784,1.063,47.475,3.633,71.176,5.814c21.861,1.987,43.695,4.511,65.648,5.232c50.202,2.154,100.414,4.234,150.634,6.239
		c21.473,0.998,42.983,1.331,64.419,2.986c27.167,2.228,54.427,3.254,81.677,3.873c23.386,0.619,46.801,0.166,70.178,1.276
		c34.507,1.1,69.022,2.375,103.557,2.736c10.445,0.222,20.844-1.026,31.262-1.71c24.385-1.932,48.769-3.956,73.154-5.971
		c20.059-1.655,40.099-3.485,60.195-4.557c15.446-0.86,30.892-1.719,46.338-2.57c1.109,0.906,2.237,1.812,3.392,2.727
		c1.766-1.146,3.54-2.292,5.352-3.383c17.766-0.777,35.514-2.052,53.262-3.171c0.971-1.396,1.322-3.854,3.531-3.559
		C1039.292,1073.953,1104.922,1068.509,1170.468,1062.26z"/>
	<path fill="#044476" stroke="#044476" d="M851.516,1068.721c6.507-0.074,13.006-0.638,19.513-0.85
		c4.132-0.259,8.042,1.285,11.739,2.949c4.095,1.839,8.375,3.235,12.396,5.241c3.115,1.544,5.435,4.187,7.903,6.563
		c-2.182,1.137-4.649,1.451-7.118,1.331c-19.818-0.296-39.646,0.25-59.464-0.277c0.453-0.823,0.924-1.618,1.414-2.394
		c2.311-3.614,4.4-7.395,7.09-10.76C846.488,1068.527,849.317,1068.989,851.516,1068.721z"/>
	<path fill="#C2DCF5" stroke="#C2DCF5" d="M731.497,1069.979c4.797,2.828,10.149,4.871,15.779,5.01
		c4.899,0.296,9.475-1.849,14.3-2.237c2.912,5.389,4.409,11.397,6.822,17.017c-12.294,0.388-24.579,1.193-36.882,1.155
		C731.516,1083.946,731.552,1076.957,731.497,1069.979z"/>
	<path fill="#044476" stroke="#044476" d="M482.945,1078.261c5.86-4.039,12.812-7.487,20.133-6.591
		c5.777,0.61,10.686,4.363,14.134,8.855c3.337,4.141,5.352,9.133,7.108,14.106c-19.144-0.536-38.296-0.721-57.44-1.359
		C471.557,1087.606,476.983,1082.559,482.945,1078.261z"/>
	<path fill="#C2DCF5" stroke="#C2DCF5" d="M772.622,1089.464c7.21-1.784,14.642-2.043,21.944-3.226l0.592-0.092
		c0.545,0.86,1.174,1.719,1.821,2.551C788.854,1088.789,780.747,1089.52,772.622,1089.464z"/>
	<path fill="#414C55" stroke="#414C55" d="M455.676,1089.973c1.913-0.684,3.827-1.377,5.703-2.135
		C460.538,1090.37,457.811,1089.889,455.676,1089.973z"/>
	<path fill="#A6A400" stroke="#A6A400" d="M265.886,1123.693c20.798-6.535,42.604-8.966,64.289-10.14
		c20.9-0.749,41.837-0.481,62.709,0.915c47.318,2.755,94.35,8.985,141.613,12.497c17.249,1.368,34.571,1.091,51.838,2.034
		c27.435,1.165,54.852,2.958,82.231,5.167c20.844,1.886,41.763,3.115,62.542,5.666c-7.691,3.208-15.899,4.936-23.839,7.423
		c-42.863,12.192-86.123,23.423-130.178,30.439c-18.45,2.644-37.196,5.084-55.832,3.18c-18.617-2.634-36.79-7.682-54.963-12.359
		c-38.943-10.26-77.591-21.704-117.006-30.042c-18.718-3.753-37.816-7.395-56.978-5.491c-20.955,1.719-41.615,5.814-62.08,10.473
		c-4.64,1.017-9.197,2.496-13.958,2.884c2.662-1.719,5.269-3.513,8.07-5.001C237.637,1134.259,251.53,1128.269,265.886,1123.693z"/>
	<path fill="#006B28" stroke="#006B28" d="M269.463,1146.682c11.638-1.969,23.396-5.195,35.264-3.411
		c20.586,2.81,40.191,9.992,60.047,15.76c17.443,5.491,35.468,8.661,53.373,12.229c38.749,7.367,77.619,14.152,116.618,20.133
		c13.126,1.95,26.28,3.873,39.507,5.075c10.242,1.063,20.234-2.015,30.125-4.215c23.821-6.027,47.383-13.08,70.714-20.807
		c9.623-3.069,18.691-7.663,28.452-10.316c16.768-4.733,33.869-8.199,51.071-10.908c11.564-1.821,23.312-2.921,35.024-2.126
		c6.11,0.388,12.054,2.145,17.581,4.751c11.462,5.352,23.691,8.828,35.274,13.893c-33.286,10.991-67.599,18.45-101.791,26.039
		c-60.426,12.922-121.175,24.422-182.22,34.035c-19.652,3.208-39.47,5.278-59.159,8.255c-32.085,4.705-64.049,10.214-95.949,16.01
		c-5.657,0.897-11.287,1.95-16.759,3.633c-3.984,1.035-8.134,1.035-12.202,1.359c-37.797,3.078-75.733,5.666-113.669,4.326
		c-8.292-0.73-16.722-0.398-24.921-1.997c0.536-0.046,1.608-0.129,2.135-0.176c-7.681-2.764-15.788-3.975-23.645-6.119
		c-8.902-2.107-17.6-5.121-26.686-6.406c-3.66-0.934-6.729-3.291-10.233-4.622c-11.601-4.28-22.139-10.963-32.371-17.794
		c1.035-15.779,11.934-28.267,22.018-39.47c5.084-6.008,12.007-10.15,16.768-16.454l0.324-0.416
		C212.125,1158.385,240.808,1152.404,269.463,1146.682z"/>
	<path fill="#A6A400" stroke="#A6A400" d="M833.852,1150.047c9.484,0.619,19.467,0.342,28.193,4.696
		c-0.702,1.59-1.423,3.189-2.126,4.797C851.35,1156.027,842.3,1153.8,833.852,1150.047z"/>
	<path fill="#009F3C" stroke="#009F3C" d="M740.722,1192.78c34.192-7.589,68.505-15.049,101.791-26.039
		c5.861,1.34,11.323,4.03,17.045,5.879c37.233,13.228,74.411,26.668,112.051,38.703c7.164,2.514,14.762,3.392,22.323,3.513
		c25.679,0.573,51.265-2.2,76.75-5.01c39.128-4.918,78.793-9.493,116.036-23.174c5.629-2.302,11.499-4.113,17.6-4.613
		c16.389-1.636,32.907-0.934,49.324-0.157c-8.735,16.879-18.469,33.259-29.358,48.853c-8.402,11.703-17.276,23.414-28.84,32.177
		c-6.406,5.01-14.485,7.044-22.397,8.079c-18.007,2.182-36.198,0.906-54.233-0.277c-40.792-3.263-81.436-8.153-122.118-12.488
		c-47.965-5.186-95.949-10.621-144.164-12.728c-20.743-0.721-41.596-1.396-62.293,0.592c-3.808,0.065-8.097,2.533-11.518-0.037
		c-9.835-6.776-19.412-13.939-29.441-20.419c-9.438-5.787-19.624-10.519-30.449-12.987c-7.413-1.645-14.864-4.271-22.564-3.3
		c-7.497,0.943-14.651,3.531-21.769,5.944c-8.467,2.995-16.981,6.998-22.989,13.884c-2.542,2.764-3.429,6.498-5.121,9.752
		c-5.639,2.163-11.878,0.85-17.683,0.092c-10.917-2.191-22.102-1.553-33.166-1.47c-43.528,1.331-86.973,4.797-130.335,8.671
		c-26.178,2.977-52.291,6.637-78.571,8.495c5.472-1.682,11.102-2.736,16.759-3.633c31.9-5.796,63.864-11.305,95.949-16.01
		c19.689-2.976,39.507-5.047,59.159-8.255C619.547,1217.202,680.297,1205.703,740.722,1192.78z"/>
	<path fill="#009F3C" stroke="#009F3C" d="M162.736,1171.982c7.201-0.647,14.254-2.311,21.094-4.622
		c-4.76,6.304-11.684,10.445-16.768,16.454c-10.085,11.203-20.983,23.691-22.018,39.47c-15.483-10.334-29.903-22.185-43.639-34.719
		c-5.01-4.705-10.223-9.244-14.679-14.494C112.062,1174.062,137.482,1174.579,162.736,1171.982z"/>
	<path fill="#737373" stroke="#737373" d="M697.573,1217.96c1.46-0.499,2.995-0.323,4.289,0.555
		c15.834,9.17,31.65,18.395,47.743,27.102c2.57,1.507,5.611,2.366,7.792,4.474c0.083,4.751-0.629,10.667-5.232,13.255
		c-7.626,4.973-15.603,9.484-24.052,12.923c-6.018,2.376-12.386,4.326-18.931,4.16c-5.158-0.092-9.752-2.736-14.18-5.093
		c-9.863-5.509-19.31-11.896-27.629-19.569c-3.069-3.106-6.683-6.267-7.718-10.658c-0.018-4.622,2.08-8.911,3.836-13.08
		c1.174-2.366,2.126-5.518,5.139-5.99C678.281,1223.358,687.913,1220.576,697.573,1217.96z"/>
	<path fill="#009D3B" stroke="#009D3B" d="M187.647,1245.7c9.087,1.285,17.785,4.298,26.686,6.406
		c7.857,2.145,15.964,3.355,23.645,6.119c-0.527,0.046-1.599,0.129-2.135,0.176c-6.018-0.083-11.943-1.442-17.859-2.44
		C207.531,1253.834,196.873,1251.265,187.647,1245.7z"/>
	<path fill="#C2DCF5" stroke="#C2DCF5" d="M469.782,1254.713c25.743-3.494,51.69-5.824,77.684-5.666
		c33.582,0.49,67.127,2.246,100.58,5.149c1.876-0.018,3.54,0.887,5.001,2.024c8.393,6.073,16.851,12.072,25.041,18.432
		c4.465,3.531,9.068,6.979,12.793,11.342c-8.735,17.748-16.158,36.106-23.276,54.547c-14.522,37.908-26.779,76.713-36.05,116.248
		c-10.371,44.563-17.101,90.264-15.964,136.122c-53.031-46.218-103.908-94.969-151.596-146.706
		c-26.917-29.358-52.781-59.732-76.445-91.789c-17.748-24.144-34.349-49.232-48.058-75.909
		C382.762,1269.771,426.05,1260.887,469.782,1254.713z"/>
</g>
</svg>
